<?xml version="1.0" encoding="UTF-8" standalone="no"?>
<svg
   version="1.1"
   width="256"
   height="256"
   id="svg9"
   sodipodi:docname="appicon_foreground.svg"
   inkscape:version="1.4 (86a8ad7, 2024-10-11)"
   xmlns:inkscape="http://www.inkscape.org/namespaces/inkscape"
   xmlns:sodipodi="http://sodipodi.sourceforge.net/DTD/sodipodi-0.dtd"
   xmlns="http://www.w3.org/2000/svg"
   xmlns:svg="http://www.w3.org/2000/svg">
  <defs
     id="defs9" />
  <sodipodi:namedview
     id="namedview9"
     pagecolor="#ffffff"
     bordercolor="#000000"
     borderopacity="0.25"
     inkscape:showpageshadow="2"
     inkscape:pageopacity="0.0"
     inkscape:pagecheckerboard="0"
     inkscape:deskcolor="#d1d1d1"
     inkscape:zoom="3.1835938"
     inkscape:cx="128.15706"
     inkscape:cy="128"
     inkscape:window-width="1920"
     inkscape:window-height="1017"
     inkscape:window-x="-8"
     inkscape:window-y="-8"
     inkscape:window-maximized="1"
     inkscape:current-layer="svg9" />
  <path
     d="M0 0 C84.48 0 168.96 0 256 0 C256 84.48 256 168.96 256 256 C171.52 256 87.04 256 0 256 C0 171.52 0 87.04 0 0 Z "
     fill="#BE4598"
     transform="translate(0,0)"
     id="path1"
     style="fill:#c03138;fill-opacity:1" />
  <path
     d="M0 0 C0 83.82 0 167.64 0 254 C-9.9 254 -19.8 254 -30 254 C-37 247 -37 247 -39 244 C-41.74298087 243.56283301 -41.74298087 243.56283301 -45.00341797 243.6628418 C-46.26588348 243.66241379 -47.528349 243.66198578 -48.82907104 243.6615448 C-49.50667355 243.66796682 -50.18427605 243.67438885 -50.88241196 243.68100548 C-53.01169152 243.69938712 -55.13998703 243.6967117 -57.26931763 243.6879425 C-63.32422827 243.66615089 -69.37877046 243.67670962 -75.43359375 243.71508789 C-79.13856654 243.73708436 -82.84257955 243.72944808 -86.54751968 243.7046299 C-87.94990831 243.70107083 -89.35237549 243.70851074 -90.75463486 243.72788048 C-102.30958033 243.88416946 -111.23233731 241.4607724 -120 233.6875 C-126.66182492 226.35949259 -128.13691151 217.68399535 -128.19287109 208.09545898 C-128.20513733 206.92358788 -128.20513733 206.92358788 -128.21765137 205.7280426 C-128.2423952 203.15073386 -128.25899668 200.57347996 -128.2734375 197.99609375 C-128.27876118 197.1109868 -128.28408485 196.22587986 -128.28956985 195.31395149 C-128.31625884 190.62524407 -128.33564379 185.93656283 -128.35009766 181.24780273 C-128.3634081 177.38655763 -128.39121322 173.52584458 -128.43212891 169.66479492 C-128.48171754 164.98403989 -128.50625075 160.3037653 -128.51332474 155.62275887 C-128.51999461 153.84911917 -128.53510394 152.07548839 -128.55921555 150.30200005 C-128.72162881 137.62899425 -127.84394902 126.93231477 -119 117 C-117.13332066 115.31687584 -115.22534828 113.68708757 -113.31645012 112.0520153 C-108.68240192 107.94696778 -104.37449246 103.49510139 -100.01000977 99.10766602 C-98.92694631 98.02267969 -97.84365222 96.93792355 -96.76014709 95.8533783 C-94.44304451 93.53313432 -92.12749954 91.2113513 -89.81317329 88.88833809 C-86.15629219 85.21786747 -82.49553942 81.55127455 -78.83421326 77.88523865 C-71.07399781 70.11396191 -63.31804699 62.33843532 -55.5625 54.5625 C-47.16456181 46.14253465 -38.76588401 37.72331463 -30.36235088 29.30893272 C-26.71917417 25.66076251 -23.07845154 22.01016576 -19.43956482 18.35771668 C-17.18490242 16.09562723 -14.92819912 13.83558254 -12.67091942 11.57610512 C-11.62067511 10.5239797 -10.57130003 9.47098584 -9.52283478 8.41708755 C-8.09832269 6.98542278 -6.67048482 5.55706941 -5.2424469 4.12892151 C-4.04264867 2.92579237 -4.04264867 2.92579237 -2.8186121 1.69835758 C-1 -0 -1 -0 0 0 Z "
     fill="#FEFEFE"
     transform="translate(256,2)"
     id="path2" />
  <path
     d="M0 0 C24.42 0 48.84 0 74 0 C84.23370374 23.27342302 94.43879559 46.55807845 104.56054688 69.88037109 C108.70550874 79.42986407 112.86088992 88.97450789 117.04296875 98.5078125 C118.2320728 101.22191945 119.42096544 103.93611894 120.60983276 106.65032959 C121.36512933 108.37246479 122.12172504 110.09403085 122.87966919 111.81500244 C123.91776048 114.17215906 124.95151588 116.53117217 125.984375 118.890625 C126.29267746 119.58721222 126.60097992 120.28379944 126.91862488 121.00149536 C129 125.77244529 129 125.77244529 129 128 C116.46 128 103.92 128 91 128 C88.69 122.72 86.38 117.44 84 112 C70.14 111.67 56.28 111.34 42 111 C41.01 114.63 40.02 118.26 39 122 C38.01 123.98 37.02 125.96 36 128 C24.12 128 12.24 128 0 128 C0 85.76 0 43.52 0 0 Z "
     fill="#FDFDFD"
     transform="translate(0,0)"
     id="path3" />
  <path
     d="M0 0 C60.06 0 120.12 0 182 0 C180.07355822 3.85288357 178.43197906 5.81512676 175.42729187 8.81321716 C174.72560756 9.51746475 174.72560756 9.51746475 174.0097478 10.23593956 C172.44309568 11.80588235 170.86940902 13.36857604 169.2956543 14.93139648 C168.17005177 16.05643477 167.04488965 17.18191384 165.9201355 18.30780029 C162.86456083 21.3639493 159.80285295 24.41388672 156.74002433 27.46276355 C153.53435363 30.65592588 150.33435115 33.85475827 147.13374329 37.05299377 C141.06638431 43.11413276 134.9939469 49.17015731 128.91967279 55.22436529 C122.02532406 62.09642496 115.13659173 68.97410265 108.24835718 75.85229003 C96.46926 87.61401205 84.68598425 99.37153404 72.89793396 111.12428284 C72.39879276 111.62194485 71.89965155 112.11960687 71.38538486 112.63234955 C70.05885019 113.95492224 68.73225286 115.27743207 67.40565014 116.59993649 C64.93516007 119.06468935 62.4671725 121.53192666 60 124 C59 125 58 126 57 127 C54 126 54 126 52.48876953 123.24145508 C51.94238615 122.00564667 51.40795553 120.76451399 50.8828125 119.51953125 C50.5897522 118.84853394 50.29669189 118.17753662 49.99475098 117.48620605 C49.0279647 115.26591037 48.07656187 113.03935798 47.125 110.8125 C46.449379 109.25307698 45.77277167 107.69408094 45.09521484 106.13549805 C43.37432937 102.17082089 41.66540893 98.20110847 39.95947266 94.22998047 C38.55358689 90.9624587 37.13643329 87.69992178 35.71875 84.4375 C33.89872017 80.24794344 32.08158582 76.05717534 30.26980591 71.86404419 C26.32426078 62.73339331 22.34714749 53.61661273 18.36831665 44.50042725 C15.54806933 38.03706223 12.73199082 31.57188018 9.91705322 25.10620117 C9.33059679 23.75928347 8.74398288 22.41243432 8.15716553 21.06567383 C6.57837962 17.44200637 5.00555487 13.81582282 3.4375 10.1875 C3.07366211 9.35275146 2.70982422 8.51800293 2.33496094 7.65795898 C0 2.23159966 0 2.23159966 0 0 Z "
     fill="#1C222B"
     transform="translate(74,0)"
     id="path4" />
  <path
     d="M0 0 C13.86 0 27.72 0 42 0 C47 10 47 10 49 17 C61.54 17 74.08 17 87 17 C83.27779568 21.34257171 79.7088092 25.41730209 75.69830322 29.43540955 C74.95156534 30.18554576 74.95156534 30.18554576 74.18974185 30.95083624 C72.54322702 32.60361402 70.89322804 34.25286575 69.24316406 35.90209961 C68.05322249 37.09503719 66.86348492 38.28817829 65.67393494 39.48150635 C62.4597416 42.70449131 59.24235122 45.92426592 56.02407932 49.14317775 C54.01368908 51.15428035 52.00401318 53.16609394 49.99459076 55.17816353 C42.98573369 62.19625248 35.97431793 69.21177327 28.96044922 76.22485352 C22.41765475 82.76704526 15.88047983 89.3148156 9.3458674 95.865179 C3.73318169 101.49091215 -1.88332396 107.11281189 -7.50285745 112.73170477 C-10.85864466 116.08723651 -14.21284604 119.44431751 -17.56322479 122.80525017 C-20.70741416 125.9590754 -23.85630771 129.10812452 -27.00897026 132.253479 C-28.16770416 133.41116195 -29.32471581 134.57057154 -30.47991371 135.73178291 C-32.05080135 137.3103206 -33.6276515 138.88264286 -35.20623779 140.45347595 C-36.0888969 141.33667983 -36.97155602 142.21988371 -37.88096237 143.12985134 C-40 145 -40 145 -42 145 C-42 102.76 -42 60.52 -42 17 C-30.12 16.67 -18.24 16.34 -6 16 C-4.02 10.72 -2.04 5.44 0 0 Z "
     fill="#1C222B"
     transform="translate(42,111)"
     id="path5" />
  <path
     d="M0 0 C0 75.9 0 151.8 0 230 C-1.65 228.35 -3.3 226.7 -5 225 C-5.72825485 224.47740097 -6.4565097 223.95480194 -7.20683289 223.41636658 C-11.15456641 220.40216169 -12.79847333 218.08860932 -13.71377563 213.14431763 C-14.07689475 208.22368172 -13.97697754 203.30823848 -13.89453125 198.37890625 C-13.8944325 196.55101636 -13.89829753 194.72312237 -13.90592957 192.89524841 C-13.9173428 188.09614616 -13.8837999 183.29849226 -13.8380127 178.49963379 C-13.77134344 170.82437523 -13.76896437 163.14898381 -13.77469444 155.47349358 C-13.76962828 152.80501329 -13.74279974 150.13743388 -13.71284485 147.46913147 C-13.63667532 135.70225164 -14.39730101 125.8540138 -23 117 C-29.29415142 112.05010846 -35.64811931 109.75756209 -43.6887207 109.7253418 C-45.65655266 109.71104378 -45.65655266 109.71104378 -47.66413879 109.69645691 C-49.08468655 109.69671842 -50.50523433 109.69765585 -51.92578125 109.69921875 C-53.39780293 109.6953264 -54.86982351 109.69099063 -56.34184265 109.68623352 C-59.42251225 109.67878863 -62.50306722 109.67904936 -65.58374023 109.68432617 C-69.51085895 109.6901097 -73.43750431 109.6732088 -77.36454487 109.6499815 C-80.40423782 109.63516989 -83.44381883 109.63438264 -86.48354149 109.63749123 C-87.93026858 109.63698145 -89.37700251 109.63180888 -90.82369423 109.62167931 C-98.75184831 109.57298693 -105.59291734 109.91086518 -113 113 C-107.87808269 106.80606045 -102.29010635 101.14825478 -96.60424805 95.47485352 C-95.5604573 94.42970555 -94.51687894 93.38434546 -93.47349548 92.33879089 C-90.65801825 89.51878088 -87.83941889 86.70191143 -85.02008414 83.88575864 C-82.06688536 80.93510097 -79.11613768 77.98199374 -76.16499329 75.02928162 C-71.21652795 70.07900141 -66.26596723 65.13082406 -61.31420898 60.18383789 C-55.58297913 54.4580674 -49.85538495 48.72867898 -44.12963074 42.99743325 C-39.21077729 38.0740507 -34.28998903 33.1526083 -29.36755973 28.2328009 C-26.42837023 25.29517299 -23.48986681 22.35686737 -20.55310631 19.41681099 C-17.79828729 16.65911563 -15.0410572 13.90385443 -12.28190041 11.15049934 C-11.26714252 10.13706956 -10.25324544 9.12277702 -9.24024963 8.10758591 C-7.86381787 6.72844508 -6.48403436 5.35265178 -5.10404968 3.97706604 C-4.33108394 3.20447732 -3.55811819 2.4318886 -2.76172924 1.6358881 C-1 0 -1 0 0 0 Z "
     fill="#BE4698"
     transform="translate(256,2)"
     id="path6"
     style="fill:#c03138;fill-opacity:1" />
  <path
     d="M0 0 C16.17 0 32.34 0 49 0 C41.02239833 22.79314762 41.02239833 22.79314762 37.6875 31.3125 C36.83276851 33.51670814 35.97865751 35.72115695 35.125 37.92578125 C34.8904863 38.5304422 34.6559726 39.13510315 34.41435242 39.75808716 C31.03694914 48.47184394 27.70281223 57.20225306 24.36239624 65.93023682 C23.19086729 68.99120197 22.01894771 72.05201729 20.84692383 75.11279297 C14.22530977 92.40624473 7.61043768 109.70227323 1 127 C0.67 127 0.34 127 0 127 C0 85.09 0 43.18 0 0 Z "
     fill="#1C222B"
     transform="translate(0,0)"
     id="path7" />
  <path
     d="M0 0 C13.53 0 27.06 0 41 0 C41 22.44 41 44.88 41 68 C34.420625 68.020625 27.84125 68.04125 21.0625 68.0625 C18.98332275 68.071604 16.90414551 68.08070801 14.76196289 68.09008789 C13.12386134 68.09300701 11.48575906 68.09555558 9.84765625 68.09765625 C8.55982239 68.1053302 8.55982239 68.1053302 7.24597168 68.11315918 C5.16363948 68.1134691 3.0813964 68.06242176 1 68 C0 67 0 67 -0.12025452 64.33616638 C-0.11803391 63.14813919 -0.11581329 61.960112 -0.11352539 60.73608398 C-0.11367142 60.08244873 -0.11381744 59.42881348 -0.1139679 58.75537109 C-0.11326883 56.58557872 -0.10547678 54.41587121 -0.09765625 52.24609375 C-0.09579205 50.74536689 -0.09436816 49.24463943 -0.09336853 47.74391174 C-0.08954352 43.78681774 -0.0797134 39.82976022 -0.06866455 35.87268066 C-0.05665533 31.1286825 -0.05204811 26.38467215 -0.04621124 21.64066315 C-0.03650162 14.42708336 -0.01734498 7.21358369 0 0 Z "
     fill="#BE4698"
     transform="translate(165,144)"
     id="path8"
     style="fill:#c03138;fill-opacity:1" />
  <path
     d="M0 0 C2.5072105 2.24047649 3.75541204 4.28519811 5.04296875 7.37890625 C5.39423828 8.21744141 5.74550781 9.05597656 6.10742188 9.91992188 C6.64206055 11.22799805 6.64206055 11.22799805 7.1875 12.5625 C7.55552734 13.43841797 7.92355469 14.31433594 8.30273438 15.21679688 C11 21.71725707 11 21.71725707 11 24 C4.73 24 -1.54 24 -8 24 C-5.90481079 15.72951627 -3.1829131 7.91325036 0 0 Z "
     fill="#2C313A"
     transform="translate(61,57)"
     id="path9" />
</svg>
