<?xml version="1.0" encoding="UTF-8" standalone="no"?>
<svg
   version="1.1"
   width="270"
   height="220"
   id="svg4"
   sodipodi:docname="homeimage.svg"
   inkscape:version="1.4 (86a8ad7, 2024-10-11)"
   xmlns:inkscape="http://www.inkscape.org/namespaces/inkscape"
   xmlns:sodipodi="http://sodipodi.sourceforge.net/DTD/sodipodi-0.dtd"
   xmlns="http://www.w3.org/2000/svg"
   xmlns:svg="http://www.w3.org/2000/svg">
  <defs
     id="defs4" />
  <sodipodi:namedview
     id="namedview4"
     pagecolor="#ffffff"
     bordercolor="#000000"
     borderopacity="0.25"
     inkscape:showpageshadow="2"
     inkscape:pageopacity="0.0"
     inkscape:pagecheckerboard="0"
     inkscape:deskcolor="#d1d1d1"
     inkscape:zoom="3.7045455"
     inkscape:cx="134.96933"
     inkscape:cy="110"
     inkscape:window-width="1920"
     inkscape:window-height="1017"
     inkscape:window-x="-8"
     inkscape:window-y="-8"
     inkscape:window-maximized="1"
     inkscape:current-layer="svg4" />
  <path
     d="M0 0 C89.1 0 178.2 0 270 0 C270 72.6 270 145.2 270 220 C180.9 220 91.8 220 0 220 C0 147.4 0 74.8 0 0 Z "
     fill="#FEFEFE"
     transform="translate(0,0)"
     id="path1" />
  <path
     d="M0 0 C24.75 0 49.5 0 75 0 C77.96476066 52.72117865 77.96476066 52.72117865 69.984375 62.35546875 C65.42938885 67.35190487 59.94772169 71.0928818 54.39379883 74.89868164 C51.06409414 77.82155449 50.24415243 80.58783081 49.49560547 84.86987305 C49 87 49 87 46.4375 89.5625 C44.98383427 90.41979005 43.5094609 91.24526955 42 92 C42.02924855 93.95138666 42.02924855 93.95138666 43 96 C45.73012627 97.37939011 45.73012627 97.37939011 49.0625 98.375 C60.3397122 102.45451611 66.42166323 108.49273594 72.1015625 119.046875 C75.64979322 127.60242196 75.5797618 139.84523582 72.4375 148.5 C67.13752036 159.39646164 59.47024885 166.14765154 48.1875 170.375 C37.9264461 173.4741508 28.58398121 172.87833278 19 168 C8.73681563 161.60574476 2.36600911 152.59403138 -1 141 C-2.59564509 129.10792813 0.96501323 118.5510291 8 109 C14.41722809 101.96721046 22.50004851 97.51817917 32 97 C32.41780879 94.62694422 32.41780879 94.62694422 32 92 C30.34151823 90.98648336 28.67334039 89.98879205 27 89 C24.76200363 85.61103407 23.25905459 83.00077493 22.2434082 79.07714844 C20.76106574 75.40869282 19.5891114 74.69032938 16.2109375 72.75390625 C8.29132643 67.32503689 1.33855424 61.78770508 -0.59466553 51.98449707 C-2.60665529 34.75026174 -0.86280741 17.21506206 0 0 Z "
     fill="#BE4598"
     transform="translate(31,5)"
     id="path2"
     style="fill:#c03138;fill-opacity:1" />
  <path
     d="M0 0 C25.08 0 50.16 0 76 0 C79.09491182 52.61350095 79.09491182 52.61350095 70.69140625 62.61328125 C65.88157432 67.84378955 60.11420679 71.83218718 54.32080078 75.88916016 C51.67889244 78.29205722 51.21373612 79.38388601 50.93359375 82.88671875 C50.98443115 83.60432373 51.03526855 84.32192871 51.08764648 85.0612793 C51 87 51 87 49.75415039 88.75708008 C48 90 48 90 44 90 C43.505 91.485 43.505 91.485 43 93 C42.01 93 41.02 93 40 93 C40.24234375 93.67579102 40.4846875 94.35158203 40.734375 95.04785156 C41.82942998 98.11295258 42.91480619 101.18139454 44 104.25 C44.3815625 105.31347656 44.763125 106.37695312 45.15625 107.47265625 C45.5171875 108.49746094 45.878125 109.52226562 46.25 110.578125 C46.58515625 111.52075195 46.9203125 112.46337891 47.265625 113.43457031 C48 116 48 116 48 120 C59.22 120 70.44 120 82 120 C79.21411216 122.78588784 76.95141641 124.88392998 73.8125 127.09375 C72.64074219 127.92712891 72.64074219 127.92712891 71.4453125 128.77734375 C69.81510417 129.92578125 68.18489583 131.07421875 66.5546875 132.22265625 C65.77351563 132.77824219 64.99234375 133.33382812 64.1875 133.90625 C63.12595703 134.65358398 63.12595703 134.65358398 62.04296875 135.41601562 C59.84043282 137.12371796 57.93068627 138.99338787 56 141 C56.27787354 141.79696289 56.55574707 142.59392578 56.84204102 143.41503906 C57.86989297 146.37915761 58.88818644 149.34633998 59.90014648 152.31591797 C60.33971026 153.59945067 60.78303881 154.88170057 61.23022461 156.16259766 C61.87305724 158.00600426 62.5011722 159.85452238 63.12890625 161.703125 C63.51119385 162.81333008 63.89348145 163.92353516 64.28735352 165.06738281 C64.98507053 167.93856362 65.04212832 169.28642487 64 172 C63.45585449 171.5968457 62.91170898 171.19369141 62.35107422 170.77832031 C59.86013167 168.93408005 57.36758122 167.09202483 54.875 165.25 C54.0190625 164.61578125 53.163125 163.9815625 52.28125 163.328125 C50.61162368 162.09517018 48.93693311 160.86903871 47.25683594 159.65039062 C45.89278115 158.6528776 44.54226473 157.63592093 43.21972656 156.58398438 C41.5739683 155.26302476 41.5739683 155.26302476 39 154 C35.4568258 155.07317642 32.70881635 156.74427512 29.75 158.93359375 C28.9765625 159.50013672 28.203125 160.06667969 27.40625 160.65039062 C26.6121875 161.24013672 25.818125 161.82988281 25 162.4375 C15.375 169.5390625 15.375 169.5390625 11 172 C11.63128972 165.62486292 13.53527276 159.87009585 15.5625 153.8125 C16.21505944 151.86248382 16.86241725 149.91071721 17.50390625 147.95703125 C17.79080322 147.10085205 18.0777002 146.24467285 18.37329102 145.36254883 C19.17093361 142.76299603 19.17093361 142.76299603 19 139 C16.92340557 137.21746346 14.9564076 135.74708066 12.6875 134.25 C11.40725233 133.37153044 10.12730849 132.49261793 8.84765625 131.61328125 C7.88110107 130.95900146 7.88110107 130.95900146 6.89501953 130.29150391 C4.10228397 128.38818374 1.36306642 126.41876058 -1.375 124.4375 C-2.26960937 123.79683594 -3.16421875 123.15617187 -4.0859375 122.49609375 C-4.71757812 122.00238281 -5.34921875 121.50867188 -6 121 C-6 120.67 -6 120.34 -6 120 C4.89 119.67 15.78 119.34 27 119 C29.58941823 111.19219681 29.58941823 111.19219681 32.17553711 103.38330078 C32.4978833 102.41376465 32.82022949 101.44422852 33.15234375 100.4453125 C33.6472229 98.95281982 33.6472229 98.95281982 34.15209961 97.43017578 C35 95 35 95 36 93 C34.68 93 33.36 93 32 93 C32 92.01 32 91.02 32 90 C31.21625 89.87625 30.4325 89.7525 29.625 89.625 C27 89 27 89 25 87 C24.8046875 84.8359375 24.8046875 84.8359375 24.875 82.375 C24.89304688 81.55773437 24.91109375 80.74046875 24.9296875 79.8984375 C24.95289063 79.27195312 24.97609375 78.64546875 25 78 C24.1642041 77.59334106 24.1642041 77.59334106 23.31152344 77.1784668 C13.57227436 72.2131779 3.85749947 65.66151476 0 55 C-3.44572054 37.2590265 -0.87992704 17.55663956 0 0 Z "
     fill="#BE4699"
     transform="translate(158,43)"
     id="path3"
     style="fill:#c03138;fill-opacity:1" />
  <path
     d="M0 0 C1.125 3.75 1.125 3.75 0 6 C-1.32 6 -2.64 6 -4 6 C-2.84826645 3.53199953 -1.95216435 1.95216435 0 0 Z "
     fill="#F6E7F1"
     transform="translate(206,124)"
     id="path4" />
</svg>
