<?xml version="1.0" encoding="UTF-8" standalone="no"?>
<!-- Uploaded to: SVG Repo, www.svgrepo.com, Generator: SVG Repo Mixer Tools -->

<svg
   fill="#000000"
   height="800px"
   width="800px"
   version="1.1"
   id="Layer_1"
   viewBox="0 0 512 512"
   xml:space="preserve"
   sodipodi:docname="lette_mail.svg"
   inkscape:version="1.4 (86a8ad7, 2024-10-11)"
   xmlns:inkscape="http://www.inkscape.org/namespaces/inkscape"
   xmlns:sodipodi="http://sodipodi.sourceforge.net/DTD/sodipodi-0.dtd"
   xmlns="http://www.w3.org/2000/svg"
   xmlns:svg="http://www.w3.org/2000/svg"><defs
   id="defs16" /><sodipodi:namedview
   id="namedview16"
   pagecolor="#ffffff"
   bordercolor="#000000"
   borderopacity="0.25"
   inkscape:showpageshadow="2"
   inkscape:pageopacity="0.0"
   inkscape:pagecheckerboard="0"
   inkscape:deskcolor="#d1d1d1"
   inkscape:zoom="1.01875"
   inkscape:cx="400.4908"
   inkscape:cy="400"
   inkscape:window-width="1920"
   inkscape:window-height="1017"
   inkscape:window-x="-8"
   inkscape:window-y="-8"
   inkscape:window-maximized="1"
   inkscape:current-layer="Layer_1" />
<g
   id="g2"
   style="fill:#ffffff;fill-opacity:1">
	<g
   id="g1"
   style="fill:#ffffff;fill-opacity:1">
		<path
   d="M277.558,147.242H148.21c-4.465,0-8.084,3.62-8.084,8.084c0,4.465,3.62,8.084,8.084,8.084h129.347    c4.465,0,8.084-3.62,8.084-8.084C285.642,150.861,282.023,147.242,277.558,147.242z"
   id="path1"
   style="fill:#ffffff;fill-opacity:1" />
	</g>
</g>
<g
   id="g4"
   style="fill:#ffffff;fill-opacity:1">
	<g
   id="g3"
   style="fill:#ffffff;fill-opacity:1">
		<path
   d="M363.789,147.242h-43.116c-4.465,0-8.084,3.62-8.084,8.084c0,4.465,3.62,8.084,8.084,8.084h43.116    c4.465,0,8.084-3.62,8.084-8.084C371.874,150.861,368.254,147.242,363.789,147.242z"
   id="path2"
   style="fill:#ffffff;fill-opacity:1" />
	</g>
</g>
<g
   id="g6"
   style="fill:#ffffff;fill-opacity:1">
	<g
   id="g5"
   style="fill:#ffffff;fill-opacity:1">
		<path
   d="M212.884,190.357H148.21c-4.465,0-8.084,3.62-8.084,8.084c0,4.465,3.62,8.084,8.084,8.084h64.674    c4.465,0,8.084-3.62,8.084-8.084C220.968,193.977,217.349,190.357,212.884,190.357z"
   id="path4"
   style="fill:#ffffff;fill-opacity:1" />
	</g>
</g>
<g
   id="g8"
   style="fill:#ffffff;fill-opacity:1">
	<g
   id="g7"
   style="fill:#ffffff;fill-opacity:1">
		<path
   d="M277.558,190.357H256c-4.465,0-8.084,3.62-8.084,8.084c0,4.465,3.62,8.084,8.084,8.084h21.558    c4.465,0,8.084-3.62,8.084-8.084C285.642,193.977,282.023,190.357,277.558,190.357z"
   id="path6"
   style="fill:#ffffff;fill-opacity:1" />
	</g>
</g>
<g
   id="g10"
   style="fill:#ffffff;fill-opacity:1">
	<g
   id="g9"
   style="fill:#ffffff;fill-opacity:1">
		<path
   d="M363.789,190.357h-43.116c-4.465,0-8.084,3.62-8.084,8.084c0,4.465,3.62,8.084,8.084,8.084h43.116    c4.465,0,8.084-3.62,8.084-8.084C371.874,193.977,368.254,190.357,363.789,190.357z"
   id="path8"
   style="fill:#ffffff;fill-opacity:1" />
	</g>
</g>
<g
   id="g12"
   style="fill:#ffffff;fill-opacity:1">
	<g
   id="g11"
   style="fill:#ffffff;fill-opacity:1">
		<path
   d="M363.789,233.473H256c-4.465,0-8.084,3.62-8.084,8.084c0,4.465,3.62,8.084,8.084,8.084h107.79    c4.465,0,8.084-3.62,8.084-8.084C371.874,237.093,368.254,233.473,363.789,233.473z"
   id="path10"
   style="fill:#ffffff;fill-opacity:1" />
	</g>
</g>
<g
   id="g14"
   style="fill:#ffffff;fill-opacity:1">
	<g
   id="g13"
   style="fill:#ffffff;fill-opacity:1">
		<path
   d="M212.884,233.473H148.21c-4.465,0-8.084,3.62-8.084,8.084c0,4.465,3.62,8.084,8.084,8.084h64.674    c4.465,0,8.084-3.618,8.084-8.084C220.968,237.093,217.349,233.473,212.884,233.473z"
   id="path12"
   style="fill:#ffffff;fill-opacity:1" />
	</g>
</g>
<g
   id="g16"
   style="fill:#ffffff;fill-opacity:1">
	<g
   id="g15"
   style="fill:#ffffff;fill-opacity:1">
		<path
   d="M508.641,201.009l0.002-0.003l-72.096-51.973v-16.782c0-28.584-22.969-51.838-51.2-51.838h-29.889L292.558,38.48    c-22.208-14.805-50.908-14.805-73.115,0l-62.901,41.933h-29.89c-28.231,0-51.2,23.255-51.2,51.838v16.782L3.357,201.006    l0.002,0.003C1.271,202.514,0,204.942,0,207.564v225.94c0,28.188,22.969,51.12,51.2,51.12h409.6c28.231,0,51.2-22.932,51.2-51.12    v-225.94C512,204.942,510.729,202.514,508.641,201.009z M436.547,168.964l53.43,38.518l-53.43,37.57V168.964z M91.621,132.251    c0-19.335,16.042-35.67,35.032-35.67h32.269c0.021,0,0.041,0,0.061,0H261.85c4.465,0,8.084-3.62,8.084-8.084    c0-4.465-3.62-8.084-8.084-8.084h-76.16l42.721-28.481c16.759-11.172,38.418-11.173,55.177,0l42.721,28.481h-28.816    c-4.465,0-8.084,3.62-8.084,8.084c0,4.465,3.62,8.084,8.084,8.084h55.494c0.005,0,0.01,0.001,0.015,0.001s0.012-0.001,0.017-0.001    h32.327c18.989,0,35.032,16.334,35.032,35.67v124.17l-102.657,72.184l-39.523-20.337c-13.718-8.101-30.68-8.101-44.397,0    l-39.523,20.337L91.621,256.421V132.251z M75.453,168.964v76.088l-53.43-37.57L75.453,168.964z M16.168,223.131l161.877,113.826    L16.168,420.252V223.131z M460.8,468.454H51.2c-17.697,0-32.363-13.164-34.698-30.191l224.917-115.732    c0.154-0.08,0.306-0.164,0.455-0.252c8.714-5.219,19.54-5.219,28.254,0c0.149,0.089,0.301,0.174,0.455,0.252l224.917,115.732    C493.163,455.291,478.497,468.454,460.8,468.454z M495.832,420.252l-161.877-83.294l161.877-113.827V420.252z"
   id="path14"
   style="fill:#ffffff;fill-opacity:1" />
	</g>
</g>
</svg>
