<?xml version="1.0" encoding="UTF-8"?>
<svg version="1.1" xmlns="http://www.w3.org/2000/svg" width="165" height="55">
<path d="M0 0 C3.49536876 1.11216279 6.76176874 2.27968964 10 4 C11.98 4.99 13.96 5.98 16 7 C16 13.93 16 20.86 16 28 C11.8935112 26.6311704 8.47606822 25.36340342 4.6875 23.4375 C3.39392578 22.78587891 3.39392578 22.78587891 2.07421875 22.12109375 C-0 21 -0 21 -1 20 C-2.51928038 19.92820036 -4.04167482 19.91607993 -5.5625 19.9375 C-6.80193359 19.95103516 -6.80193359 19.95103516 -8.06640625 19.96484375 C-8.70449219 19.97644531 -9.34257813 19.98804687 -10 20 C-10.02687279 18.18757948 -10.04633715 16.37504767 -10.0625 14.5625 C-10.07410156 13.55316406 -10.08570313 12.54382813 -10.09765625 11.50390625 C-10 9 -10 9 -9 8 C-5.5 7.875 -5.5 7.875 -2 8 C-1.67 8.33 -1.34 8.66 -1 9 C-0.67 6.03 -0.34 3.06 0 0 Z M-7 11 C-7 12.98 -7 14.96 -7 17 C-6.01 17 -5.02 17 -4 17 C-4 15.02 -4 13.04 -4 11 C-4.99 11 -5.98 11 -7 11 Z " fill="#FFFFFF" transform="translate(63,16)"/>
<path d="M0 0 C0 0.66 0 1.32 0 2 C0.61875 2.144375 1.2375 2.28875 1.875 2.4375 C4 3 4 3 6 4 C6 6.31 6 8.62 6 11 C6.99 11 7.98 11 9 11 C9 14.96 9 18.92 9 23 C8.01 23 7.02 23 6 23 C6 23.66 6 24.32 6 25 C5.01 25 4.02 25 3 25 C3 24.34 3 23.68 3 23 C2.01 23 1.02 23 0 23 C0.33 24.32 0.66 25.64 1 27 C0.01 27.33 -0.98 27.66 -2 28 C-3.32 25.69 -4.64 23.38 -6 21 C-6.33 21.66 -6.66 22.32 -7 23 C-7.99 23 -8.98 23 -10 23 C-11.22189098 7.76030413 -11.22189098 7.76030413 -8.2890625 3.53515625 C-5.59853427 1.54882765 -3.40644678 0 0 0 Z M-3.625 13.5 C-4.07875 13.995 -4.5325 14.49 -5 15 C-3.68 15 -2.36 15 -1 15 C-0.67 14.01 -0.34 13.02 0 12 C-2.12364481 11.77390663 -2.12364481 11.77390663 -3.625 13.5 Z " fill="#FFFFFF" transform="translate(91,13)"/>
<path d="M0 0 C1.32 0.33 2.64 0.66 4 1 C5.25 3.5625 5.25 3.5625 6 6 C6.66 6 7.32 6 8 6 C8.66 4.02 9.32 2.04 10 0 C10.99 0 11.98 0 13 0 C13 3.96 13 7.92 13 12 C12.01 12 11.02 12 10 12 C9.67 11.34 9.34 10.68 9 10 C8.01 10.99 7.02 11.98 6 13 C5.34 11.68 4.68 10.36 4 9 C3.67 9.99 3.34 10.98 3 12 C2.01 12 1.02 12 0 12 C0 8.04 0 4.08 0 0 Z " fill="#FFFFFF" transform="translate(4,24)"/>
<path d="M0 0 C6.0546875 -0.1953125 6.0546875 -0.1953125 8 0 C10 2 10 2 10.125 4.375 C10.08375 5.24125 10.0425 6.1075 10 7 C10 8.32 10 9.64 10 11 C8.125 11.625 8.125 11.625 6 12 C5.34 11.34 4.68 10.68 4 10 C3.67 10.66 3.34 11.32 3 12 C2.01 12 1.02 12 0 12 C0 8.04 0 4.08 0 0 Z M3 3 C3 3.99 3 4.98 3 6 C3.99 6 4.98 6 6 6 C6 5.01 6 4.02 6 3 C5.01 3 4.02 3 3 3 Z " fill="#FFFFFF" transform="translate(141,24)"/>
<path d="M0 0 C4 1 4 1 6 4 C6.33 2.68 6.66 1.36 7 0 C7.99 0 8.98 0 10 0 C10 3.96 10 7.92 10 12 C6 11 6 11 4 8 C3.67 9.32 3.34 10.64 3 12 C2.01 12 1.02 12 0 12 C0 8.04 0 4.08 0 0 Z " fill="#FFFFFF" transform="translate(30,24)"/>
<path d="M0 0 C0.99 0 1.98 0 3 0 C4.65 3.96 6.3 7.92 8 12 C4.04 12 0.08 12 -4 12 C-2.68 8.04 -1.36 4.08 0 0 Z M1 6 C2 8 2 8 2 8 Z " fill="#FFFFFF" transform="translate(132,24)"/>
<path d="M0 0 C2.64 0 5.28 0 8 0 C8 0.99 8 1.98 8 3 C6.35 3 4.7 3 3 3 C3 3.66 3 4.32 3 5 C4.32 5 5.64 5 7 5 C7.33 7.31 7.66 9.62 8 12 C5.36 12 2.72 12 0 12 C0 8.04 0 4.08 0 0 Z " fill="#FFFFFF" transform="translate(20,24)"/>
<path d="M0 0 C1.9375 0.375 1.9375 0.375 4 1 C4.33 1.66 4.66 2.32 5 3 C5.66 2.01 6.32 1.02 7 0 C8.32 0.33 9.64 0.66 11 1 C10.2884375 2.051875 10.2884375 2.051875 9.5625 3.125 C7.91260143 6.16081337 7.39631536 8.59168786 7 12 C6.01 12 5.02 12 4 12 C3.566875 10.6078125 3.566875 10.6078125 3.125 9.1875 C2.1125 5.90208333 2.1125 5.90208333 0 3 C0 2.01 0 1.02 0 0 Z " fill="#FFFFFF" transform="translate(152,24)"/>
<path d="M0 0 C2.97 0 5.94 0 9 0 C9 0.99 9 1.98 9 3 C8.01 3 7.02 3 6 3 C6 5.97 6 8.94 6 12 C5.01 12 4.02 12 3 12 C3 9.03 3 6.06 3 3 C2.01 3 1.02 3 0 3 C0 2.01 0 1.02 0 0 Z " fill="#FFFFFF" transform="translate(119,24)"/>
<path d="M0 0 C0.99 0 1.98 0 3 0 C3 2.97 3 5.94 3 9 C4.98 9 6.96 9 9 9 C9 9.99 9 10.98 9 12 C6.03 12 3.06 12 0 12 C0 8.04 0 4.08 0 0 Z " fill="#FFFFFF" transform="translate(103,24)"/>
<path d="M0 0 C2.97 0 5.94 0 9 0 C9 0.99 9 1.98 9 3 C8.01 3 7.02 3 6 3 C6 5.97 6 8.94 6 12 C5.01 12 4.02 12 3 12 C3 9.03 3 6.06 3 3 C2.01 3 1.02 3 0 3 C0 2.01 0 1.02 0 0 Z " fill="#FFFFFF" transform="translate(42,24)"/>
<path d="M0 0 C0.33 1.98 0.66 3.96 1 6 C-0.98 6.99 -2.96 7.98 -5 9 C-5 6.36 -5 3.72 -5 1 C-2 0 -2 0 0 0 Z " fill="#FFFFFF" transform="translate(86,36)"/>
<path d="M0 0 C0.99 0 1.98 0 3 0 C3 3.96 3 7.92 3 12 C2.01 12 1.02 12 0 12 C0 8.04 0 4.08 0 0 Z " fill="#FFFFFF" transform="translate(114,24)"/>
</svg>
