<?xml version="1.0" encoding="UTF-8" standalone="no"?>
<!-- Uploaded to: SVG Repo, www.svgrepo.com, Generator: SVG Repo Mixer Tools -->

<svg
   fill="#000000"
   width="800px"
   height="800px"
   viewBox="0 0 32 32"
   id="icon"
   version="1.1"
   sodipodi:docname="thirdparty.svg"
   inkscape:version="1.4 (86a8ad7, 2024-10-11)"
   xmlns:inkscape="http://www.inkscape.org/namespaces/inkscape"
   xmlns:sodipodi="http://sodipodi.sourceforge.net/DTD/sodipodi-0.dtd"
   xmlns="http://www.w3.org/2000/svg"
   xmlns:svg="http://www.w3.org/2000/svg">
  <sodipodi:namedview
     id="namedview6"
     pagecolor="#ffffff"
     bordercolor="#000000"
     borderopacity="0.25"
     inkscape:showpageshadow="2"
     inkscape:pageopacity="0.0"
     inkscape:pagecheckerboard="0"
     inkscape:deskcolor="#d1d1d1"
     inkscape:zoom="1.01875"
     inkscape:cx="400.4908"
     inkscape:cy="400"
     inkscape:window-width="1920"
     inkscape:window-height="1017"
     inkscape:window-x="-8"
     inkscape:window-y="-8"
     inkscape:window-maximized="1"
     inkscape:current-layer="icon" />
  <defs
     id="defs1">
    <style
       id="style1">
      .cls-1 {
        fill: none;
      }
    </style>
  </defs>
  <rect
     x="8"
     y="14"
     width="6"
     height="2"
     id="rect1"
     style="fill:#ffffff;fill-opacity:1" />
  <rect
     x="8"
     y="6"
     width="12"
     height="2"
     id="rect2"
     style="fill:#ffffff;fill-opacity:1" />
  <rect
     x="8"
     y="10"
     width="12"
     height="2"
     id="rect3"
     style="fill:#ffffff;fill-opacity:1" />
  <rect
     x="8"
     y="24"
     width="6"
     height="2"
     id="rect4"
     style="fill:#ffffff;fill-opacity:1" />
  <path
     d="M27,25H21a3,3,0,0,0-3,3v2h2V28a1,1,0,0,1,1-1h6a1,1,0,0,1,1,1v2h2V28A3,3,0,0,0,27,25Z"
     id="path4"
     style="fill:#ffffff;fill-opacity:1" />
  <path
     d="M24,24a4,4,0,1,0-4-4A4,4,0,0,0,24,24Zm0-6a2,2,0,1,1-2,2A2,2,0,0,1,24,18Z"
     id="path5"
     style="fill:#ffffff;fill-opacity:1" />
  <path
     d="M14,30H6a2.0021,2.0021,0,0,1-2-2V4A2.0021,2.0021,0,0,1,6,2H22a2.0021,2.0021,0,0,1,2,2V14H22V4H6V28h8Z"
     id="path6"
     style="fill:#ffffff;fill-opacity:1" />
  <rect
     id="_Transparent_Rectangle_"
     data-name="&lt;Transparent Rectangle&gt;"
     class="cls-1"
     width="32"
     height="32" />
</svg>
