<?xml version="1.0" encoding="UTF-8"?>
<svg version="1.1" xmlns="http://www.w3.org/2000/svg" width="330" height="199">
<path d="M0 0 C108.9 0 217.8 0 330 0 C330 65.67 330 131.34 330 199 C221.1 199 112.2 199 0 199 C0 133.33 0 67.66 0 0 Z " fill="#FCFCFC" transform="translate(0,0)"/>
<path d="M0 0 C1.13758003 -0.00855011 1.13758003 -0.00855011 2.29814148 -0.01727295 C3.90276702 -0.02671356 5.50741187 -0.03325321 7.11206055 -0.03710938 C9.5548733 -0.04679827 11.99683836 -0.0778224 14.43945312 -0.109375 C16.00129711 -0.11590727 17.56314709 -0.12115686 19.125 -0.125 C19.8502034 -0.1373468 20.5754068 -0.1496936 21.32258606 -0.16241455 C27.19872838 -0.13687859 31.09949987 1.39153621 35.57421875 5.140625 C38.27665697 8.44360505 38.38554615 11.58658858 38.35595703 15.75292969 C38.3519841 17.09517609 38.3519841 17.09517609 38.34793091 18.46453857 C38.34268402 19.42499084 38.33743713 20.38544312 38.33203125 21.375 C38.340617 23.4218835 38.35109348 25.46875978 38.36328125 27.515625 C38.37995653 30.7329728 38.38675368 33.94870562 38.36132812 37.16601562 C38.34028595 40.27834391 38.36366565 43.38780716 38.39453125 46.5 C38.37713898 47.45235535 38.3597467 48.40471069 38.34182739 49.38592529 C38.45952673 55.95274654 40.13059849 59.16977141 44.76095581 63.82940674 C45.50383347 64.50939728 45.50383347 64.50939728 46.26171875 65.203125 C42.7681241 68.79947244 39.15073744 72.03764467 35.26171875 75.203125 C32.39474383 73.91792935 30.28564163 72.63183246 28.26171875 70.203125 C28.26171875 69.543125 28.26171875 68.883125 28.26171875 68.203125 C26.62759033 68.2345459 26.62759033 68.2345459 24.96044922 68.26660156 C20.90150197 68.33924365 16.84261169 68.38501218 12.78320312 68.42285156 C11.02952396 68.4429121 9.27591122 68.47016751 7.52246094 68.50488281 C4.99527557 68.55364802 2.46897784 68.57614892 -0.05859375 68.59375 C-0.83695587 68.61439514 -1.61531799 68.63504028 -2.41726685 68.65631104 C-7.66252013 68.65845163 -10.55150436 67.63047702 -14.73828125 64.203125 C-17.93166206 60.56927787 -18.86061807 57.50359141 -18.88354492 52.71923828 C-18.88992477 51.81464874 -18.89630463 50.9100592 -18.90287781 49.97805786 C-18.90399063 49.00303314 -18.90510345 48.02800842 -18.90625 47.0234375 C-18.9095784 46.01852264 -18.9129068 45.01360779 -18.91633606 43.97824097 C-18.92140035 41.85154681 -18.92374454 39.72484471 -18.92358398 37.59814453 C-18.925768 34.34784813 -18.94392229 31.09789247 -18.96289062 27.84765625 C-18.96582515 25.78125116 -18.96780955 23.71484446 -18.96875 21.6484375 C-18.97593552 20.67746124 -18.98312103 19.70648499 -18.99052429 18.70608521 C-18.95655901 8.65002749 -18.95655901 8.65002749 -15.3359375 4.65625 C-10.12845934 0.57507119 -6.4315468 0.03737752 0 0 Z " fill="#1D232C" transform="translate(27.73828125,88.796875)"/>
<path d="M0 0 C6.14625 -0.0825 12.2925 -0.165 18.625 -0.25 C20.55424316 -0.28641602 22.48348633 -0.32283203 24.47119141 -0.36035156 C26.01463714 -0.37204314 27.55809529 -0.38223386 29.1015625 -0.390625 C29.89135498 -0.41108887 30.68114746 -0.43155273 31.49487305 -0.45263672 C36.79830592 -0.4559628 39.79255385 0.47371257 44 4 C45.22393401 6.44786802 45.15316165 8.09211501 45.19287109 10.8293457 C45.20893402 11.83411453 45.22499695 12.83888336 45.24154663 13.87409973 C45.28595105 18.47131723 45.32705938 23.06838975 45.35009766 27.66577148 C45.36666321 30.09165028 45.39396075 32.51748015 45.43212891 34.94311523 C45.48684539 38.43759528 45.50876441 41.93093073 45.5234375 45.42578125 C45.54610687 46.50926346 45.56877625 47.59274567 45.59213257 48.70906067 C45.57094077 56.25045933 45.57094077 56.25045933 42.59228516 60.16088867 C38.16349281 63.30292038 34.78129079 63.1310517 29.4921875 63.09765625 C28.74718994 63.09664917 28.00219238 63.09564209 27.23461914 63.09460449 C24.4480638 63.08936714 21.66153038 63.07540589 18.875 63.0625 C12.64625 63.041875 6.4175 63.02125 0 63 C0 42.21 0 21.42 0 0 Z " fill="#232932" transform="translate(275,12)"/>
<path d="M0 0 C4.95 0 9.9 0 15 0 C15.33 17.49 15.66 34.98 16 53 C24.25 53 32.5 53 41 53 C41.33 35.51 41.66 18.02 42 0 C46.95 0 51.9 0 57 0 C57.11335279 7.29364183 57.20491605 14.58679541 57.25906086 21.88113403 C57.28505932 25.26891024 57.32027378 28.65604812 57.37719727 32.04345703 C57.43805961 35.94580742 57.46626048 39.84726047 57.48828125 43.75 C57.51408768 44.95551514 57.5398941 46.16103027 57.56648254 47.40307617 C57.56881506 54.4476419 57.05509156 59.77440076 52 65 C47.54115683 68.12157693 43.34577973 68.46724354 38.0390625 68.46875 C37.289664 68.47636353 36.5402655 68.48397705 35.76815796 68.49182129 C34.18987339 68.50257817 32.61151789 68.50549341 31.03320312 68.50097656 C28.63809533 68.50000531 26.24620773 68.5416469 23.8515625 68.5859375 C10.10195497 68.69801205 10.10195497 68.69801205 4.42333984 64.66210938 C-0.97924055 58.35322991 -0.39354849 51.84312804 -0.29296875 43.9453125 C-0.28872391 42.68862762 -0.28447906 41.43194275 -0.28010559 40.13717651 C-0.26619122 36.81284265 -0.23928624 33.4891377 -0.20599365 30.16497803 C-0.17518246 26.76629034 -0.16157678 23.36753741 -0.14648438 19.96875 C-0.1134501 13.31230511 -0.06168456 6.65623856 0 0 Z " fill="#20252E" transform="translate(83,89)"/>
<path d="M0 0 C4.95 0 9.9 0 15 0 C15.33 8.58 15.66 17.16 16 26 C17.98 23.56625 19.96 21.1325 22 18.625 C22.98274902 17.43898193 22.98274902 17.43898193 23.98535156 16.22900391 C26.54539908 13.13202606 28.91997167 10.12859514 31.046875 6.7109375 C32.87475659 3.80141956 34.14708547 1.93525731 37 0 C42.618784 -1.13864465 48.34317611 -0.57853881 54 0 C50.22319322 5.10379295 46.35714238 10.13060632 42.4375 15.125 C41.74950317 16.00309326 41.74950317 16.00309326 41.04760742 16.89892578 C38.09383445 20.6536592 35.07366597 24.34272656 32 28 C33.56638772 32.84746021 36.35406112 36.34918726 39.4375 40.3125 C43.82448118 46.05561571 48.08621994 51.86150224 52.1875 57.8125 C52.65663818 58.48772705 53.12577637 59.1629541 53.60913086 59.85864258 C55.45357501 62.55151039 56.96236658 64.88709973 58 68 C51.98441786 69.02264896 45.91964863 69.89469284 40 68 C35.17062145 64.33367753 32.39004636 58.66262446 29.45605469 53.47363281 C26.98538194 49.27630613 24.0981701 45.38332955 21.25 41.4375 C19.5175 38.983125 17.785 36.52875 16 34 C15.67 45.22 15.34 56.44 15 68 C10.05 68 5.1 68 0 68 C0 45.56 0 23.12 0 0 Z " fill="#1D232C" transform="translate(265,89)"/>
<path d="M0 0 C1.37315189 -0.01149691 2.74625989 -0.03191293 4.11914062 -0.06152344 C18.73106981 -0.37619323 18.73106981 -0.37619323 25.3203125 4.29516602 C29.65603014 9.43158593 28.53152799 14.88829622 28.3203125 21.29516602 C23.3703125 21.29516602 18.4203125 21.29516602 13.3203125 21.29516602 C13.3203125 18.98516602 13.3203125 16.67516602 13.3203125 14.29516602 C5.7303125 13.96516602 -1.8596875 13.63516602 -9.6796875 13.29516602 C-9.6796875 26.82516602 -9.6796875 40.35516602 -9.6796875 54.29516602 C-2.4196875 53.96516602 4.8403125 53.63516602 12.3203125 53.29516602 C12.6503125 51.64516602 12.9803125 49.99516602 13.3203125 48.29516602 C18.2703125 48.29516602 23.2203125 48.29516602 28.3203125 48.29516602 C28.75904768 59.26354546 28.75904768 59.26354546 25.3203125 63.29516602 C18.71687885 69.2382563 12.17515579 68.54499992 3.75170898 68.59033203 C2.26105249 68.60184728 0.77043709 68.62229231 -0.7199707 68.65185547 C-2.88000345 68.69468762 -5.0388132 68.71072129 -7.19921875 68.72094727 C-9.13438354 68.74282104 -9.13438354 68.74282104 -11.10864258 68.76513672 C-16.10060581 68.10816473 -19.19953227 65.97948059 -22.4921875 62.23266602 C-24.44693116 59.04334742 -24.81228423 56.38995782 -24.85668945 52.73535156 C-24.86952469 51.81396896 -24.88235992 50.89258636 -24.89558411 49.94328308 C-24.90297104 48.94952164 -24.91035797 47.95576019 -24.91796875 46.93188477 C-24.9260405 45.90714554 -24.93411224 44.88240631 -24.94242859 43.82661438 C-24.95626192 41.65705046 -24.96698743 39.48746485 -24.97485352 37.31787109 C-24.99206703 34.00584543 -25.03596074 30.69481782 -25.08007812 27.38305664 C-25.09020525 25.27434002 -25.09872129 23.16561491 -25.10546875 21.05688477 C-25.12297684 20.06919601 -25.14048492 19.08150726 -25.15852356 18.06388855 C-25.13988385 12.13322095 -24.5834652 8.83572049 -20.6796875 4.29516602 C-14.82134131 -1.01396022 -7.49011282 0.04360926 0 0 Z " fill="#1D232C" transform="translate(219.6796875,88.704833984375)"/>
<path d="M0 0 C5.836875 -0.061875 11.67375 -0.12375 17.6875 -0.1875 C20.43839966 -0.22846802 20.43839966 -0.22846802 23.24487305 -0.27026367 C24.70881493 -0.27903074 26.17276415 -0.28667416 27.63671875 -0.29296875 C28.3884436 -0.30831665 29.14016846 -0.32366455 29.91467285 -0.33947754 C34.47224072 -0.34174011 37.3995759 0.14131929 41 3 C44.16583506 7.74875258 43.36871145 12.79076608 43.375 18.375 C43.39949219 19.51195313 43.42398438 20.64890625 43.44921875 21.8203125 C43.47867697 30.18644614 43.47867697 30.18644614 41.1015625 34.2265625 C37.85143376 36.96923619 36.05468382 37.11608569 31.875 37.0625 C30.96492188 37.05347656 30.05484375 37.04445312 29.1171875 37.03515625 C28.41851562 37.02355469 27.71984375 37.01195312 27 37 C28.64432988 39.10535695 30.29006661 41.20957259 31.9375 43.3125 C32.43096924 43.94244873 32.92443848 44.57239746 33.43286133 45.22143555 C37.35180689 50.2090128 41.35642945 55.11585669 45.41796875 59.98828125 C47 62 47 62 47 63 C43.46161864 63.73131473 40.525781 63.86537402 37 63 C33.36099275 59.81510158 30.80236984 55.91764688 28 52 C26.1833722 49.78011075 24.31054635 47.60986128 22.4375 45.4375 C18 40.2435312 18 40.2435312 18 38 C14.7 38 11.4 38 8 38 C8 46.25 8 54.5 8 63 C5.36 63 2.72 63 0 63 C0 42.21 0 21.42 0 0 Z " fill="#242A32" transform="translate(215,12)"/>
<path d="M0 0 C2.97 0 5.94 0 9 0 C24 40.07423581 24 40.07423581 24 45 C24.66 45 25.32 45 26 45 C26.10828125 43.87464844 26.2165625 42.74929687 26.328125 41.58984375 C26.93841157 36.73209071 28.28332663 32.22177593 29.75 27.5625 C30.2895422 25.80874126 30.8285953 24.05483198 31.3671875 22.30078125 C31.63885742 21.42244629 31.91052734 20.54411133 32.19042969 19.63916016 C33.45405243 15.519811 34.66571348 11.38556514 35.875 7.25 C36.28904958 5.83853788 36.70311076 4.42707915 37.1171875 3.015625 C37.40851563 2.02046875 37.69984375 1.0253125 38 0 C39.32 0 40.64 0 42 0 C42.34780518 1.04865234 42.69561035 2.09730469 43.05395508 3.17773438 C44.35513089 7.09947697 45.65834884 11.02053849 46.9621582 14.94140625 C47.52423181 16.63262975 48.08576483 18.32403302 48.64672852 20.015625 C49.45704466 22.45881822 50.26935704 24.90134027 51.08203125 27.34375 C51.32903275 28.08991577 51.57603424 28.83608154 51.83052063 29.6048584 C53.4447486 34.44805028 55.18265699 39.22917995 57 44 C61.76358997 29.43879642 66.0999617 14.81624765 70 0 C72.64 0 75.28 0 78 0 C76.78725041 6.74591958 75.14258716 13.18084362 73 19.6875 C72.70601318 20.59580566 72.41202637 21.50411133 72.10913086 22.43994141 C71.45111607 24.47191257 70.79074558 26.50312192 70.12841797 28.53369141 C68.84981753 32.46133506 67.5821331 36.39241184 66.31640625 40.32421875 C63.88214376 47.88428294 61.44251992 55.4425995 59 63 C57.35 63 55.7 63 54 63 C53.63648438 61.77667969 53.27296875 60.55335937 52.8984375 59.29296875 C50.23238741 50.34649192 47.53643795 41.40979674 44.75 32.5 C44.38140869 31.3092688 44.38140869 31.3092688 44.00537109 30.09448242 C43.65466553 28.98036987 43.65466553 28.98036987 43.296875 27.84375 C43.09416992 27.19599609 42.89146484 26.54824219 42.68261719 25.88085938 C41.93779314 23.8285974 41.00985966 21.93386515 40 20 C37.02998527 30.34506426 34.06904723 40.69238739 31.1875 51.0625 C30.9810083 51.80483887 30.7745166 52.54717773 30.56176758 53.31201172 C29.66956059 56.53235059 28.78469023 59.75155121 28 63 C26.35 63 24.7 63 23 63 C15.172627 42.05558995 7.44670896 21.08325526 0 0 Z " fill="#242A33" transform="translate(66,12)"/>
<path d="M0 0 C2.3203125 0.17480469 2.3203125 0.17480469 5 1 C6.5546875 3.22363281 6.5546875 3.22363281 7.875 6.203125 C8.3793457 7.31550537 8.88369141 8.42788574 9.40332031 9.57397461 C9.93600985 10.79911521 10.46822466 12.02446231 11 13.25 C11.55921331 14.50277641 12.12011188 15.75480178 12.68261719 17.00610352 C13.86270051 19.63865961 15.0317463 22.27574814 16.19335938 24.91650391 C17.99584499 29.00565736 19.8457922 33.07225014 21.703125 37.13671875 C22.59735834 39.10089645 23.49063132 41.0655066 24.38330078 43.03039551 C24.95825252 44.29553227 25.53409026 45.56026678 26.11083984 46.82458496 C26.9178476 48.59805149 27.71690025 50.37513138 28.515625 52.15234375 C28.97227539 53.16288818 29.42892578 54.17343262 29.89941406 55.21459961 C30.93043963 57.82395424 31.5537515 60.23686215 32 63 C29.36 63 26.72 63 24 63 C22.35 59.7 20.7 56.4 19 53 C8.77 52.67 -1.46 52.34 -12 52 C-12.99 55.3 -13.98 58.6 -15 62 C-16 63 -16 63 -17.84765625 63.09765625 C-19.8984375 63.06510417 -21.94921875 63.03255208 -24 63 C-16.04429054 41.98300272 -8.03535666 20.98666479 0 0 Z " fill="#212730" transform="translate(170,12)"/>
<path d="M0 0 C2.3203125 0.17480469 2.3203125 0.17480469 5 1 C6.5546875 3.22363281 6.5546875 3.22363281 7.875 6.203125 C8.3793457 7.31550537 8.88369141 8.42788574 9.40332031 9.57397461 C9.93600985 10.79911521 10.46822466 12.02446231 11 13.25 C11.55921331 14.50277641 12.12011188 15.75480178 12.68261719 17.00610352 C13.86270051 19.63865961 15.0317463 22.27574814 16.19335938 24.91650391 C17.99584499 29.00565736 19.8457922 33.07225014 21.703125 37.13671875 C22.59735834 39.10089645 23.49063132 41.0655066 24.38330078 43.03039551 C24.95825252 44.29553227 25.53409026 45.56026678 26.11083984 46.82458496 C26.9178476 48.59805149 27.71690025 50.37513138 28.515625 52.15234375 C28.97227539 53.16288818 29.42892578 54.17343262 29.89941406 55.21459961 C30.93043963 57.82395424 31.5537515 60.23686215 32 63 C29.36 63 26.72 63 24 63 C22.35 59.7 20.7 56.4 19 53 C8.77 52.67 -1.46 52.34 -12 52 C-12.99 55.3 -13.98 58.6 -15 62 C-16 63 -16 63 -17.84765625 63.09765625 C-19.8984375 63.06510417 -21.94921875 63.03255208 -24 63 C-16.04429054 41.98300272 -8.03535666 20.98666479 0 0 Z " fill="#212730" transform="translate(34,12)"/>
<path d="M0 0 C4.599375 -0.020625 9.19875 -0.04125 13.9375 -0.0625 C15.39019287 -0.071604 16.84288574 -0.08070801 18.33959961 -0.09008789 C19.47405518 -0.09258545 20.60851074 -0.09508301 21.77734375 -0.09765625 C23.52905884 -0.10551147 23.52905884 -0.10551147 25.31616211 -0.11352539 C28 0 28 0 29 1 C29.09304018 2.47354348 29.11746265 3.95150591 29.11352539 5.42797852 C29.11344986 6.36887833 29.11337433 7.30977814 29.11329651 8.27919006 C29.10813522 9.30209641 29.10297394 10.32500275 29.09765625 11.37890625 C29.0962413 12.42070541 29.09482635 13.46250458 29.09336853 14.53587341 C29.0877508 17.87811094 29.0751953 21.22028257 29.0625 24.5625 C29.05748728 26.82226466 29.05292398 29.08203037 29.04882812 31.34179688 C29.03862456 36.89457734 29.01905264 42.44721452 29 48 C19.43 48 9.86 48 0 48 C0 32.16 0 16.32 0 0 Z " fill="#FAFAFB" transform="translate(283,19)"/>
<path d="M0 0 C1.53333984 -0.00386719 1.53333984 -0.00386719 3.09765625 -0.0078125 C4.16886719 -0.00007813 5.24007812 0.00765625 6.34375 0.015625 C7.95056641 0.00402344 7.95056641 0.00402344 9.58984375 -0.0078125 C10.61207031 -0.00523438 11.63429688 -0.00265625 12.6875 0 C13.62787109 0.00225586 14.56824219 0.00451172 15.53710938 0.00683594 C17.84375 0.265625 17.84375 0.265625 19.84375 2.265625 C20.0313603 5.12276964 20.09932318 7.88128486 20.07421875 10.73828125 C20.07353142 11.99565346 20.07353142 11.99565346 20.0728302 13.27842712 C20.06980724 15.05127375 20.06191963 16.82411771 20.04956055 18.59692383 C20.03130065 21.32057022 20.02905085 24.04387692 20.02929688 26.76757812 C20.02438192 28.48698213 20.0185537 30.20638381 20.01171875 31.92578125 C20.01060593 32.74554947 20.0094931 33.56531769 20.00834656 34.40992737 C19.95979801 40.14957699 19.95979801 40.14957699 18.84375 41.265625 C17.00215977 41.36522121 15.15678033 41.39642911 13.3125 41.3984375 C12.19230469 41.39972656 11.07210937 41.40101563 9.91796875 41.40234375 C8.73847656 41.39847656 7.55898438 41.39460938 6.34375 41.390625 C4.57451172 41.39642578 4.57451172 41.39642578 2.76953125 41.40234375 C1.08923828 41.40041016 1.08923828 41.40041016 -0.625 41.3984375 C-1.66076172 41.39730957 -2.69652344 41.39618164 -3.76367188 41.39501953 C-6.15625 41.265625 -6.15625 41.265625 -7.15625 40.265625 C-7.2697015 37.47738762 -7.32043263 34.71485155 -7.32421875 31.92578125 C-7.32754715 31.08848984 -7.33087555 30.25119843 -7.33430481 29.38853455 C-7.33937756 27.61392772 -7.34171303 25.83931133 -7.34155273 24.06469727 C-7.34373797 21.34310244 -7.36188633 18.62191357 -7.38085938 15.90039062 C-7.38379342 14.17968889 -7.38577814 12.45898523 -7.38671875 10.73828125 C-7.39390427 9.92053726 -7.40108978 9.10279327 -7.40849304 8.26026917 C-7.3820238 1.7440276 -6.56926996 0.01575904 0 0 Z " fill="#F8F8F9" transform="translate(31.15625,101.734375)"/>
<path d="M0 0 C4.95 0 9.9 0 15 0 C15 22.44 15 44.88 15 68 C10.05 68 5.1 68 0 68 C0 45.56 0 23.12 0 0 Z " fill="#1F252E" transform="translate(160,89)"/>
<path d="M0 0 C8.91 0 17.82 0 27 0 C27 7.26 27 14.52 27 22 C18.09 22 9.18 22 0 22 C0 14.74 0 7.48 0 0 Z " fill="#FFFFFF" transform="translate(223,20)"/>
<path d="M0 0 C3.66703846 4.5842973 5.78863083 9.74118537 8.1875 15.0625 C8.65091797 16.06861328 9.11433594 17.07472656 9.59179688 18.11132812 C10.24825195 19.55862305 10.24825195 19.55862305 10.91796875 21.03515625 C11.31781982 21.9156665 11.7176709 22.79617676 12.12963867 23.70336914 C13 26 13 26 13 29 C5.08 29 -2.84 29 -11 29 C-8.87371852 22.62115557 -6.69626946 16.30480393 -4.375 10 C-4.06304687 9.14277344 -3.75109375 8.28554688 -3.4296875 7.40234375 C-3.130625 6.58894531 -2.8315625 5.77554688 -2.5234375 4.9375 C-2.25450684 4.20402344 -1.98557617 3.47054688 -1.70849609 2.71484375 C-1 1 -1 1 0 0 Z " fill="#F5F5F5" transform="translate(172,28)"/>
<path d="M0 0 C3.66703846 4.5842973 5.78863083 9.74118537 8.1875 15.0625 C8.65091797 16.06861328 9.11433594 17.07472656 9.59179688 18.11132812 C10.24825195 19.55862305 10.24825195 19.55862305 10.91796875 21.03515625 C11.31781982 21.9156665 11.7176709 22.79617676 12.12963867 23.70336914 C13 26 13 26 13 29 C5.08 29 -2.84 29 -11 29 C-8.87371852 22.62115557 -6.69626946 16.30480393 -4.375 10 C-4.06304688 9.14277344 -3.75109375 8.28554688 -3.4296875 7.40234375 C-3.130625 6.58894531 -2.8315625 5.77554688 -2.5234375 4.9375 C-2.25450684 4.20402344 -1.98557617 3.47054688 -1.70849609 2.71484375 C-1 1 -1 1 0 0 Z " fill="#F5F5F5" transform="translate(36,28)"/>
<path d="M0 0 C6.93359375 -0.09765625 6.93359375 -0.09765625 9 0 C10 1 10 1 10.1328125 3.25 C10.13023437 4.1575 10.12765625 5.065 10.125 6 C10.12757813 6.9075 10.13015625 7.815 10.1328125 8.75 C10 11 10 11 9 12 C5.99668982 12.14193337 3.00782866 12.04236378 0 12 C0 8.04 0 4.08 0 0 Z " fill="#757373" transform="translate(123,176)"/>
<path d="M0 0 C3.5 0.125 3.5 0.125 4.5 1.125 C4.59823937 2.78929051 4.62973631 4.45781931 4.625 6.125 C4.62757813 7.0325 4.63015625 7.94 4.6328125 8.875 C4.5 11.125 4.5 11.125 3.5 12.125 C0 12.25 0 12.25 -3.5 12.125 C-4.5 11.125 -4.5 11.125 -4.6328125 8.875 C-4.63023437 7.9675 -4.62765625 7.06 -4.625 6.125 C-4.62757813 5.2175 -4.63015625 4.31 -4.6328125 3.375 C-4.41402887 -0.33145204 -3.860461 0.13787361 0 0 Z " fill="#656363" transform="translate(243.5,175.875)"/>
<path d="M0 0 C6.93359375 -0.09765625 6.93359375 -0.09765625 9 0 C10 1 10 1 10.0625 3.875 C10.041875 4.90625 10.02125 5.9375 10 7 C10 7.99 10 8.98 10 10 C10 10.66 10 11.32 10 12 C6.73045798 11.43628586 5.17424117 10.50037734 3 8 C3 9.32 3 10.64 3 12 C2.01 12 1.02 12 0 12 C0 8.04 0 4.08 0 0 Z " fill="#838181" transform="translate(302,176)"/>
<path d="M0 0 C6.93359375 -0.09765625 6.93359375 -0.09765625 9 0 C10 1 10 1 10.125 3.9375 C10 7 10 7 9 9 C9.33 9.99 9.66 10.98 10 12 C6.73045798 11.43628586 5.17424117 10.50037734 3 8 C3 9.32 3 10.64 3 12 C2.01 12 1.02 12 0 12 C0 8.04 0 4.08 0 0 Z " fill="#727070" transform="translate(23,176)"/>
<path d="M0 0 C6.93359375 -0.09765625 6.93359375 -0.09765625 9 0 C10 1 10 1 10.125 3.3125 C10 6 10 6 9.4375 8.1875 C8.77357897 10.08432232 8.77357897 10.08432232 10 12 C7.13275314 11.42655063 6.1385485 11.1385485 4 9 C3.67 9.99 3.34 10.98 3 12 C2.01 12 1.02 12 0 12 C0 8.04 0 4.08 0 0 Z " fill="#7E7D7D" transform="translate(110,176)"/>
<path d="M0 0 C1.9375 0.3125 1.9375 0.3125 4 1 C4.33 1.99 4.66 2.98 5 4 C5.66 2.68 6.32 1.36 7 0 C7.99 0.33 8.98 0.66 10 1 C10.33 1.99 10.66 2.98 11 4 C11.66 2.68 12.32 1.36 13 0 C13.99 0 14.98 0 16 0 C15.57811541 1.8161982 15.13700835 3.62794073 14.6875 5.4375 C14.44386719 6.44683594 14.20023437 7.45617187 13.94921875 8.49609375 C13.63597656 9.32238281 13.32273437 10.14867187 13 11 C12.01 11.33 11.02 11.66 10 12 C9.34 10.68 8.68 9.36 8 8 C7.67 9.32 7.34 10.64 7 12 C6.01 12 5.02 12 4 12 C3.3291288 10.3767313 2.66342971 8.75132422 2 7.125 C1.62875 6.22007812 1.2575 5.31515625 0.875 4.3828125 C0 2 0 2 0 0 Z " fill="#747272" transform="translate(272,176)"/>
<path d="M0 0 C0.99 0 1.98 0 3 0 C3.33 1.65 3.66 3.3 4 5 C4.66 5 5.32 5 6 5 C6.33 3.35 6.66 1.7 7 0 C7.66 0 8.32 0 9 0 C9.33 1.65 9.66 3.3 10 5 C10.66 5 11.32 5 12 5 C12.33 3.35 12.66 1.7 13 0 C13.66 0 14.32 0 15 0 C14.14285714 8.57142857 14.14285714 8.57142857 12 12 C11.34 12 10.68 12 10 12 C9.67 10.02 9.34 8.04 9 6 C8.34 6 7.68 6 7 6 C6.67 7.98 6.34 9.96 6 12 C5.34 12 4.68 12 4 12 C3.3291288 10.3767313 2.66342971 8.75132422 2 7.125 C1.62875 6.22007812 1.2575 5.31515625 0.875 4.3828125 C0 2 0 2 0 0 Z " fill="#777676" transform="translate(140,176)"/>
<path d="M0 0 C1.32 0.33 2.64 0.66 4 1 C5.25 4.0625 5.25 4.0625 6 7 C6.66 7 7.32 7 8 7 C8.268125 6.030625 8.53625 5.06125 8.8125 4.0625 C9.4003125 2.5465625 9.4003125 2.5465625 10 1 C10.99 0.67 11.98 0.34 13 0 C13 3.96 13 7.92 13 12 C12.34 12 11.68 12 11 12 C10.67 10.35 10.34 8.7 10 7 C9.34 8.32 8.68 9.64 8 11 C7.01 10.67 6.02 10.34 5 10 C4.67 9.34 4.34 8.68 4 8 C3.67 9.32 3.34 10.64 3 12 C2.01 12 1.02 12 0 12 C0 8.04 0 4.08 0 0 Z " fill="#797777" transform="translate(36,176)"/>
<path d="M0 0 C6.15234375 -0.09765625 6.15234375 -0.09765625 8 0 C9 1 9 1 9.0625 2.99609375 C9.02089996 4.62109546 8.9792335 6.24609547 8.9375 7.87109375 C8.85218862 10.05502216 8.85218862 10.05502216 10 12 C8.68 12 7.36 12 6 12 C5.34 11.01 4.68 10.02 4 9 C3.67 9.99 3.34 10.98 3 12 C2.01 12 1.02 12 0 12 C0 8.04 0 4.08 0 0 Z " fill="#656363" transform="translate(158,176)"/>
<path d="M0 0 C0.99 0 1.98 0 3 0 C3.66 1.65 4.32 3.3 5 5 C5.66 3.35 6.32 1.7 7 0 C7.66 0 8.32 0 9 0 C9.33 1.65 9.66 3.3 10 5 C10.66 5 11.32 5 12 5 C12.33 3.35 12.66 1.7 13 0 C13.99 0.33 14.98 0.66 16 1 C14.68 4.63 13.36 8.26 12 12 C11.34 12 10.68 12 10 12 C9.34 10.68 8.68 9.36 8 8 C7.34 9.32 6.68 10.64 6 12 C5.34 12 4.68 12 4 12 C3.3291288 10.3767313 2.66342971 8.75132422 2 7.125 C1.62875 6.22007812 1.2575 5.31515625 0.875 4.3828125 C0 2 0 2 0 0 Z " fill="#737171" transform="translate(80,176)"/>
<path d="M0 0 C2.05078125 0.03255208 4.1015625 0.06510417 6.15234375 0.09765625 C6.48234375 1.41765625 6.81234375 2.73765625 7.15234375 4.09765625 C4.84234375 3.76765625 2.53234375 3.43765625 0.15234375 3.09765625 C0.15234375 5.07765625 0.15234375 7.05765625 0.15234375 9.09765625 C0.81234375 8.76765625 1.47234375 8.43765625 2.15234375 8.09765625 C2.15234375 7.10765625 2.15234375 6.11765625 2.15234375 5.09765625 C3.80234375 5.09765625 5.45234375 5.09765625 7.15234375 5.09765625 C7.19488731 7.09720371 7.19315158 9.09807261 7.15234375 11.09765625 C6.15234375 12.09765625 6.15234375 12.09765625 4.33984375 12.23046875 C3.61796875 12.22789062 2.89609375 12.2253125 2.15234375 12.22265625 C1.43046875 12.22523438 0.70859375 12.2278125 -0.03515625 12.23046875 C-1.84765625 12.09765625 -1.84765625 12.09765625 -2.84765625 11.09765625 C-2.94589562 9.43336574 -2.97739256 7.76483694 -2.97265625 6.09765625 C-2.97523438 5.19015625 -2.9778125 4.28265625 -2.98046875 3.34765625 C-2.81750736 0.58689864 -2.7691363 0.14636027 0 0 Z " fill="#737272" transform="translate(210.84765625,175.90234375)"/>
<path d="M0 0 C2.97 0 5.94 0 9 0 C8.67 2.31 8.34 4.62 8 7 C6.35 7 4.7 7 3 7 C3 7.66 3 8.32 3 9 C4.98 9 6.96 9 9 9 C9 9.99 9 10.98 9 12 C6.03 12 3.06 12 0 12 C0 8.04 0 4.08 0 0 Z " fill="#7F7D7D" transform="translate(315,176)"/>
<path d="M0 0 C0.99 0 1.98 0 3 0 C4.6875 2.5 4.6875 2.5 6 5 C6.33 3.35 6.66 1.7 7 0 C7.99 0 8.98 0 10 0 C10 3.96 10 7.92 10 12 C6 11 6 11 4.25 8.4375 C3.8375 7.633125 3.425 6.82875 3 6 C2.67 7.98 2.34 9.96 2 12 C1.34 12 0.68 12 0 12 C0 8.04 0 4.08 0 0 Z " fill="#797777" transform="translate(195,176)"/>
<path d="M0 0 C1.134375 0.020625 2.26875 0.04125 3.4375 0.0625 C3.7675 1.0525 4.0975 2.0425 4.4375 3.0625 C2.1275 3.0625 -0.1825 3.0625 -2.5625 3.0625 C-2.5625 3.7225 -2.5625 4.3825 -2.5625 5.0625 C-0.2525 5.0625 2.0575 5.0625 4.4375 5.0625 C5.0625 7.4375 5.0625 7.4375 5.4375 10.0625 C3.4375 12.0625 3.4375 12.0625 -0.1875 12.1875 C-1.30125 12.14625 -2.415 12.105 -3.5625 12.0625 C-3.8925 11.0725 -4.2225 10.0825 -4.5625 9.0625 C-2.2525 9.3925 0.0575 9.7225 2.4375 10.0625 C2.4375 9.0725 2.4375 8.0825 2.4375 7.0625 C0.9834375 7.0934375 0.9834375 7.0934375 -0.5 7.125 C-3.5625 7.0625 -3.5625 7.0625 -4.5625 6.0625 C-4.6875 3.5625 -4.6875 3.5625 -4.5625 1.0625 C-3.5625 0.0625 -3.5625 0.0625 0 0 Z " fill="#6F6D6D" transform="translate(230.5625,175.9375)"/>
<path d="M0 0 C3 1 3 1 4.16796875 2.99609375 C4.50441406 3.80175781 4.84085937 4.60742188 5.1875 5.4375 C5.53167969 6.24058594 5.87585938 7.04367188 6.23046875 7.87109375 C7 10 7 10 7 12 C6.01 12 5.02 12 4 12 C4 11.34 4 10.68 4 10 C1.36 10.66 -1.28 11.32 -4 12 C-3.45660208 7.43545749 -2.20536179 4.0271824 0 0 Z " fill="#868585" transform="translate(293,176)"/>
<path d="M0 0 C0.66 0 1.32 0 2 0 C3.65 3.96 5.3 7.92 7 12 C5.01432292 11.70703125 3.02864583 11.4140625 1.04296875 11.12109375 C-1.2025342 10.86095201 -1.2025342 10.86095201 -4 12 C-3.45660208 7.43545749 -2.20536179 4.0271824 0 0 Z " fill="#6E6C6C" transform="translate(101,176)"/>
<path d="M0 0 C0.66 0 1.32 0 2 0 C3.65 3.96 5.3 7.92 7 12 C5.01432292 11.70703125 3.02864583 11.4140625 1.04296875 11.12109375 C-1.2025342 10.86095201 -1.2025342 10.86095201 -4 12 C-3.45660208 7.43545749 -2.20536179 4.0271824 0 0 Z " fill="#6E6C6C" transform="translate(73,176)"/>
<path d="M0 0 C0.66 0 1.32 0 2 0 C3.65 3.96 5.3 7.92 7 12 C5.01432292 11.70703125 3.02864583 11.4140625 1.04296875 11.12109375 C-1.2025342 10.86095201 -1.2025342 10.86095201 -4 12 C-3.45660208 7.43545749 -2.20536179 4.0271824 0 0 Z " fill="#6E6C6C" transform="translate(14,176)"/>
<path d="M0 0 C2.64 0 5.28 0 8 0 C8 0.99 8 1.98 8 3 C6.35 3 4.7 3 3 3 C3 3.66 3 4.32 3 5 C4.32 5 5.64 5 7 5 C7 5.99 7 6.98 7 8 C5.68 8 4.36 8 3 8 C3 9.32 3 10.64 3 12 C2.01 12 1.02 12 0 12 C0 8.04 0 4.08 0 0 Z " fill="#787676" transform="translate(252,176)"/>
<path d="M0 0 C3.3 0 6.6 0 10 0 C10 0.66 10 1.32 10 2 C8.68 2 7.36 2 6 2 C6 5.3 6 8.6 6 12 C5.01 12 4.02 12 3 12 C3 9.03 3 6.06 3 3 C2.01 3 1.02 3 0 3 C0 2.01 0 1.02 0 0 Z " fill="#7B7A7A" transform="translate(176,176)"/>
<path d="M0 0 C2.97 0 5.94 0 9 0 C9 0.99 9 1.98 9 3 C8.01 3 7.02 3 6 3 C6 5.97 6 8.94 6 12 C5.01 12 4.02 12 3 12 C3 8.7 3 5.4 3 2 C2.01 2 1.02 2 0 2 C0 1.34 0 0.68 0 0 Z " fill="#797878" transform="translate(262,176)"/>
<path d="M0 0 C0.99 0 1.98 0 3 0 C3.33 1.32 3.66 2.64 4 4 C4.66 4 5.32 4 6 4 C6.66 2.68 7.32 1.36 8 0 C8.66 0 9.32 0 10 0 C9.690625 0.680625 9.38125 1.36125 9.0625 2.0625 C7.86629351 5.36965912 7.40994603 8.51545878 7 12 C6.01 12 5.02 12 4 12 C3.566875 10.4221875 3.566875 10.4221875 3.125 8.8125 C2.22774807 5.77181289 1.23576581 2.91287656 0 0 Z " fill="#737171" transform="translate(52,176)"/>
<path d="M0 0 C1.9375 0.3125 1.9375 0.3125 4 1 C4.33 1.99 4.66 2.98 5 4 C5.66 3.67 6.32 3.34 7 3 C7 3.66 7 4.32 7 5 C7.66 5.33 8.32 5.66 9 6 C8.34 7.98 7.68 9.96 7 12 C6.01 12 5.02 12 4 12 C3.3291288 10.3767313 2.66342971 8.75132422 2 7.125 C1.62875 6.22007812 1.2575 5.31515625 0.875 4.3828125 C0 2 0 2 0 0 Z " fill="#7C7B7B" transform="translate(272,176)"/>
<path d="M0 0 C1.65 0 3.3 0 5 0 C4.938125 0.7425 4.87625 1.485 4.8125 2.25 C5.03094296 5.45383006 5.90250005 6.64031256 8 9 C6.68 9.33 5.36 9.66 4 10 C3.34 9.01 2.68 8.02 2 7 C1.34 7.99 0.68 8.98 0 10 C0 6.7 0 3.4 0 0 Z " fill="#9D9B9B" transform="translate(160,178)"/>
<path d="M0 0 C2.64 0 5.28 0 8 0 C8.33 1.32 8.66 2.64 9 4 C6.69 3.67 4.38 3.34 2 3 C2 4.98 2 6.96 2 9 C3.32 9.33 4.64 9.66 6 10 C4.35 10 2.7 10 1 10 C0 3.375 0 3.375 0 0 Z " fill="#858383" transform="translate(209,176)"/>
<path d="M0 0 C1.65 0 3.3 0 5 0 C5 2.64 5 5.28 5 8 C3.35 8 1.7 8 0 8 C0 5.36 0 2.72 0 0 Z " fill="#C3C2C2" transform="translate(241,178)"/>
<path d="M0 0 C0.99 0 1.98 0 3 0 C3.99 1.98 4.98 3.96 6 6 C5.01 6 4.02 6 3 6 C2.67 7.98 2.34 9.96 2 12 C1.34 12 0.68 12 0 12 C0 8.04 0 4.08 0 0 Z " fill="#6B6969" transform="translate(195,176)"/>
<path d="M0 0 C0.99 0 1.98 0 3 0 C3 3.96 3 7.92 3 12 C2.01 12 1.02 12 0 12 C0 8.04 0 4.08 0 0 Z " fill="#727070" transform="translate(171,176)"/>
<path d="M0 0 C1.134375 0.020625 2.26875 0.04125 3.4375 0.0625 C4.0975 1.7125 4.7575 3.3625 5.4375 5.0625 C4.4475 5.0625 3.4575 5.0625 2.4375 5.0625 C2.4375 4.4025 2.4375 3.7425 2.4375 3.0625 C-0.2025 3.7225 -2.8425 4.3825 -5.5625 5.0625 C-4.31580396 0.07571586 -4.31580396 0.07571586 0 0 Z " fill="#6D6B6B" transform="translate(294.5625,182.9375)"/>
<path d="M0 0 C0.99 0.33 1.98 0.66 3 1 C1.68 4.63 0.36 8.26 -1 12 C-1.66 12 -2.32 12 -3 12 C-3.33 10.02 -3.66 8.04 -4 6 C-3.34 6 -2.68 6 -2 6 C-1.34 4.02 -0.68 2.04 0 0 Z " fill="#6E6C6C" transform="translate(93,176)"/>
<path d="M0 0 C0.66 0 1.32 0 2 0 C2 3.96 2 7.92 2 12 C1.34 12 0.68 12 0 12 C0 9.69 0 7.38 0 5 C-0.66 5 -1.32 5 -2 5 C-1.34 3.35 -0.68 1.7 0 0 Z " fill="#676565" transform="translate(47,176)"/>
<path d="M0 0 C0.66 0 1.32 0 2 0 C2.66 1.65 3.32 3.3 4 5 C3.34 5 2.68 5 2 5 C2 5.99 2 6.98 2 8 C1.01 8 0.02 8 -1 8 C-1.93065133 5.39417629 -2.14917407 4.35801776 -1.0625 1.75 C-0.711875 1.1725 -0.36125 0.595 0 0 Z " fill="#888787" transform="translate(101,176)"/>
<path d="M0 0 C0.66 0 1.32 0 2 0 C2.66 1.65 3.32 3.3 4 5 C3.34 5 2.68 5 2 5 C2 5.99 2 6.98 2 8 C1.01 8 0.02 8 -1 8 C-1.93065133 5.39417629 -2.14917407 4.35801776 -1.0625 1.75 C-0.711875 1.1725 -0.36125 0.595 0 0 Z " fill="#888787" transform="translate(73,176)"/>
<path d="M0 0 C0.66 0 1.32 0 2 0 C2.66 1.65 3.32 3.3 4 5 C3.34 5 2.68 5 2 5 C2 5.99 2 6.98 2 8 C1.01 8 0.02 8 -1 8 C-1.93065133 5.39417629 -2.14917407 4.35801776 -1.0625 1.75 C-0.711875 1.1725 -0.36125 0.595 0 0 Z " fill="#888787" transform="translate(14,176)"/>
<path d="M0 0 C0.66 0 1.32 0 2 0 C2.33 1.65 2.66 3.3 3 5 C3.66 5 4.32 5 5 5 C4.67 5.66 4.34 6.32 4 7 C1.9375 7.625 1.9375 7.625 0 8 C-1.125 2.25 -1.125 2.25 0 0 Z " fill="#828181" transform="translate(87,176)"/>
<path d="M0 0 C1.32 0 2.64 0 4 0 C4 1.98 4 3.96 4 6 C2.68 6 1.36 6 0 6 C0 4.02 0 2.04 0 0 Z " fill="#FFFFFF" transform="translate(126,179)"/>
<path d="M0 0 C0.99 0 1.98 0 3 0 C3.33 1.65 3.66 3.3 4 5 C4.66 5 5.32 5 6 5 C6 5.66 6 6.32 6 7 C4.68 7.33 3.36 7.66 2 8 C1.34 5.36 0.68 2.72 0 0 Z " fill="#818080" transform="translate(140,176)"/>
<path d="M0 0 C1.65 0 3.3 0 5 0 C5 0.66 5 1.32 5 2 C5.66 2 6.32 2 7 2 C6.34 3.32 5.68 4.64 5 6 C4.67 5.01 4.34 4.02 4 3 C2.68 3 1.36 3 0 3 C0 2.01 0 1.02 0 0 Z " fill="#AEADAD" transform="translate(26,179)"/>
<path d="M0 0 C0.99 0.33 1.98 0.66 3 1 C1.515 3.475 1.515 3.475 0 6 C-0.99 5.67 -1.98 5.34 -3 5 C-3.6875 2.9375 -3.6875 2.9375 -4 1 C-2.68 1.33 -1.36 1.66 0 2 C0 1.34 0 0.68 0 0 Z " fill="#716F6F" transform="translate(44,181)"/>
<path d="M0 0 C0.66 0 1.32 0 2 0 C1.67 2.64 1.34 5.28 1 8 C0.67 7.34 0.34 6.68 0 6 C-0.99 6.33 -1.98 6.66 -3 7 C-3 6.34 -3 5.68 -3 5 C-2.34 5 -1.68 5 -1 5 C-0.67 3.35 -0.34 1.7 0 0 Z " fill="#878686" transform="translate(153,176)"/>
<path d="M0 0 C1.32 0.33 2.64 0.66 4 1 C3.67 2.98 3.34 4.96 3 7 C2.34 7 1.68 7 1 7 C0.67 4.69 0.34 2.38 0 0 Z " fill="#6A6868" transform="translate(149,181)"/>
<path d="M0 0 C0.99 0 1.98 0 3 0 C3 1.98 3 3.96 3 6 C2.01 6 1.02 6 0 6 C0 4.02 0 2.04 0 0 Z " fill="#FFFFFF" transform="translate(242,179)"/>
<path d="M0 0 C0.93423645 3.01031744 1.04449911 3.86650268 0 7 C-0.66 7 -1.32 7 -2 7 C-2.33 5.35 -2.66 3.7 -3 2 C-2.01 2 -1.02 2 0 2 C0 1.34 0 0.68 0 0 Z " fill="#686666" transform="translate(146,181)"/>
</svg>
