<?xml version="1.0" encoding="UTF-8" standalone="no"?>
<svg
   version="1.0"
   width="256.000000pt"
   height="256.000000pt"
   viewBox="0 0 256.000000 256.000000"
   preserveAspectRatio="xMidYMid meet"
   id="svg4"
   sodipodi:docname="webresources.svg"
   inkscape:version="1.4 (86a8ad7, 2024-10-11)"
   xmlns:inkscape="http://www.inkscape.org/namespaces/inkscape"
   xmlns:sodipodi="http://sodipodi.sourceforge.net/DTD/sodipodi-0.dtd"
   xmlns="http://www.w3.org/2000/svg"
   xmlns:svg="http://www.w3.org/2000/svg">
  <defs
     id="defs4" />
  <sodipodi:namedview
     id="namedview4"
     pagecolor="#ffffff"
     bordercolor="#000000"
     borderopacity="0.25"
     inkscape:showpageshadow="2"
     inkscape:pageopacity="0.0"
     inkscape:pagecheckerboard="true"
     inkscape:deskcolor="#d1d1d1"
     inkscape:document-units="pt"
     inkscape:zoom="2.3876953"
     inkscape:cx="170.45726"
     inkscape:cy="170.66667"
     inkscape:window-width="1920"
     inkscape:window-height="1017"
     inkscape:window-x="-8"
     inkscape:window-y="-8"
     inkscape:window-maximized="1"
     inkscape:current-layer="svg4" />
  <metadata
     id="metadata1">
Created by potrace 1.10, written by Peter Selinger 2001-2011
</metadata>
  <g
     transform="translate(0.000000,256.000000) scale(0.100000,-0.100000)"
     fill="#000000"
     stroke="none"
     id="g4"
     style="fill:#ffffff;fill-opacity:1">
    <path
       d="M74 2180 c-12 -4 -31 -21 -43 -36 -19 -24 -21 -39 -21 -164 0 -113 3 -139 15 -144 8 -3 15 -12 15 -21 0 -8 -7 -15 -15 -15 -13 0 -15 -82 -15 -681 l0 -682 36 -33 35 -34 1190 0 c1036 0 1194 2 1219 15 64 33 60 -23 60 892 0 577 -3 839 -11 856 -6 13 -23 31 -39 40 -26 16 -125 17 -1217 16 -653 0 -1198 -4 -1209 -9z m2409 -68 c13 -14 16 -44 18 -142 l1 -125 -1223 -3 -1224 -2 3 127 c4 128 9 149 44 162 9 3 545 5 1191 3 1106 -2 1175 -3 1190 -20z m20 -984 l-2 -663 -26 -23 -26 -22 -1174 2 c-1161 3 -1175 3 -1195 23 -19 20 -20 33 -20 675 0 360 0 658 0 663 0 4 550 7 1223 7 l1222 0 -2 -662z"
       id="path1"
       style="fill:#ffffff;fill-opacity:1" />
    <path
       d="M170 2005 c-7 -8 -10 -22 -6 -30 5 -13 70 -15 548 -13 522 3 543 4 546 22 2 10 -2 22 -10 27 -7 5 -250 9 -539 9 -454 0 -528 -2 -539 -15z"
       id="path2"
       style="fill:#ffffff;fill-opacity:1" />
    <path
       d="M2222 2011 c-8 -5 -12 -17 -10 -27 3 -17 14 -19 91 -22 71 -2 88 0 93 13 12 31 -15 45 -90 45 -39 0 -77 -4 -84 -9z"
       id="path3"
       style="fill:#ffffff;fill-opacity:1" />
    <path
       d="M1215 1648 c-178 -23 -322 -120 -407 -272 -182 -328 14 -736 385 -800 176 -31 340 24 472 158 108 109 157 229 157 379 -1 155 -54 278 -164 383 -77 74 -131 106 -223 132 -87 25 -143 30 -220 20z m38 -187 l2 -131 -94 0 -93 0 6 28 c15 65 81 176 125 210 24 18 46 31 48 28 3 -2 6 -63 6 -135z m145 74 c28 -33 92 -165 92 -190 0 -13 -13 -15 -91 -13 l-90 3 0 128 c0 70 0 130 1 133 0 11 63 -32 88 -61z m-274 33 c-5 -7 -22 -31 -39 -53 -25 -33 -52 -98 -71 -172 -2 -9 -29 -13 -89 -13 -47 0 -85 2 -85 4 0 10 95 124 123 147 37 31 148 99 160 99 5 0 5 -6 1 -12z m404 -39 c56 -34 98 -69 128 -107 76 -96 77 -92 -20 -92 l-85 0 -11 41 c-18 65 -55 141 -84 171 -53 55 -31 51 72 -13z m-533 -419 l0 -171 -90 3 -89 3 -14 65 c-14 67 -11 165 8 231 l10 37 88 1 87 2 0 -171z m256 0 l0 -165 -98 0 -98 0 -8 60 c-9 62 -3 248 8 266 4 6 46 9 101 7 l95 -3 0 -165z m263 118 c8 -68 8 -183 0 -242 l-7 -47 -99 3 -99 3 0 163 c0 89 1 164 1 167 0 3 44 5 99 5 l98 0 7 -52z m244 -8 c14 -61 10 -195 -8 -247 l-12 -33 -89 0 -90 0 7 38 c10 49 10 217 0 265 l-7 38 93 -3 93 -3 13 -55z m-722 -410 c14 -41 41 -95 60 -119 19 -24 32 -46 30 -49 -9 -8 -131 72 -180 118 -47 44 -109 124 -101 131 2 2 40 2 85 -1 l81 -5 25 -75z m219 -55 c0 -74 -2 -135 -5 -135 -3 0 -22 11 -41 24 -43 29 -91 101 -124 185 l-24 61 97 0 97 0 0 -135z m225 84 c-29 -72 -49 -109 -80 -149 -29 -37 -86 -76 -92 -63 -2 5 -2 65 0 136 l3 127 94 0 95 0 -20 -51z m240 47 c0 -12 -92 -119 -128 -149 -51 -43 -151 -101 -159 -94 -3 4 10 24 30 47 34 40 77 134 77 169 0 10 3 21 7 24 7 7 173 10 173 3z"
       id="path4"
       style="fill:#ffffff;fill-opacity:1" />
  </g>
</svg>
