<?xml version="1.0" encoding="UTF-8" standalone="no"?>
<svg
   height="148"
   width="154"
   viewBox="-282.18765 -437.5 313.85538 485.625"
   version="1.1"
   id="svg11"
   sodipodi:docname="wordicon.svg"
   inkscape:version="1.4 (86a8ad7, 2024-10-11)"
   xmlns:inkscape="http://www.inkscape.org/namespaces/inkscape"
   xmlns:sodipodi="http://sodipodi.sourceforge.net/DTD/sodipodi-0.dtd"
   xmlns="http://www.w3.org/2000/svg"
   xmlns:svg="http://www.w3.org/2000/svg">
  <defs
     id="defs11" />
  <sodipodi:namedview
     id="namedview11"
     pagecolor="#ffffff"
     bordercolor="#000000"
     borderopacity="0.25"
     inkscape:showpageshadow="2"
     inkscape:pageopacity="0.0"
     inkscape:pagecheckerboard="true"
     inkscape:deskcolor="#d1d1d1"
     inkscape:zoom="1.01875"
     inkscape:cx="372.51534"
     inkscape:cy="164.41718"
     inkscape:window-width="1920"
     inkscape:window-height="1017"
     inkscape:window-x="-8"
     inkscape:window-y="-8"
     inkscape:window-maximized="1"
     inkscape:current-layer="svg11" />
  <path
     d="M 98.285402,-431.59509 H -240.27071 c -11.68388,0 -21.1555,9.73593 -21.1555,21.74587 v 96.88911 l 196.204267,59.31749 184.662843,-59.31749 v -96.88911 c 0,-12.00994 -9.47162,-21.74587 -21.155498,-21.74587 z"
     fill="#41a5ee"
     id="path1"
     style="stroke-width:0.26746" />
  <path
     d="m 119.4409,-312.96011 h -380.86711 v 118.63497 l 196.204267,35.59049 184.662843,-35.59049 z"
     fill="#2b7cd3"
     id="path2"
     style="stroke-width:0.26746" />
  <path
     d="M -261.42621,-194.32514 V -75.690169 L -76.763373,-51.963174 119.4409,-75.690169 V -194.32514 Z"
     fill="#185abd"
     id="path3"
     style="stroke-width:0.26746" />
  <path
     d="M -240.27071,42.944819 H 98.28566 c 11.68388,0 21.1555,-9.735933 21.1555,-21.745859 V -75.690169 H -261.42621 V 21.19896 c 0,12.009926 9.47162,21.745859 21.1555,21.745859 z"
     fill="#103f91"
     id="path4"
     style="stroke-width:0.26746" />
  <path
     d="m -121.00173,-336.68711 h -140.42448 v 296.587447 h 140.42448 c 11.66806,-0.03906 21.117517,-9.752209 21.155507,-21.745867 v -253.09572 c -0.038,-11.99367 -9.487447,-21.7068 -21.155507,-21.74586 z"
     opacity="0.1"
     id="path5"
     style="stroke-width:0.26746" />
  <path
     d="m -132.54315,-324.82361 h -128.88306 v 296.587444 h 128.88306 c 11.66805,-0.03906 21.11751,-9.752202 21.1555,-21.745872 V -303.07775 c -0.038,-11.99365 -9.48745,-21.70682 -21.1555,-21.74586 z"
     opacity="0.2"
     id="path6"
     style="stroke-width:0.26746" />
  <path
     d="m -132.54315,-324.82361 h -128.88306 v 272.860436 h 128.88306 c 11.66805,-0.03903 21.11751,-9.7522 21.1555,-21.745858 V -303.07775 c -0.038,-11.99365 -9.48745,-21.70682 -21.1555,-21.74586 z"
     opacity="0.2"
     id="path7"
     style="stroke-width:0.26746" />
  <path
     d="m -144.08458,-324.82361 h -117.34163 v 272.860436 h 117.34163 c 11.66805,-0.03903 21.11751,-9.7522 21.1555,-21.745858 V -303.07775 c -0.038,-11.99365 -9.48745,-21.70682 -21.1555,-21.74586 z"
     opacity="0.2"
     id="path8"
     style="stroke-width:0.26746" />
  <linearGradient
     gradientTransform="matrix(0.26380407,0,0,-0.27116566,-376.8405,43.487156)"
     y2="333.08801"
     x2="795.29401"
     y1="1420.912"
     x1="167.20599"
     gradientUnits="userSpaceOnUse"
     id="a">
    <stop
       offset="0"
       stop-color="#2368c4"
       id="stop8" />
    <stop
       offset=".5"
       stop-color="#1a5dbe"
       id="stop9" />
    <stop
       offset="1"
       stop-color="#1146ac"
       id="stop10" />
  </linearGradient>
  <path
     d="m -355.68499,-324.82361 h 211.60041 c 11.68388,0 21.1555,9.73594 21.1555,21.74586 v 217.505496 c 0,12.009928 -9.47162,21.745859 -21.1555,21.745859 h -211.60041 c -11.68388,0 -21.1555,-9.735931 -21.1555,-21.745859 V -303.07775 c 0,-12.00992 9.47162,-21.74586 21.1555,-21.74586 z"
     fill="url(#a)"
     id="path10"
     style="fill:url(#a);stroke-width:0.26746" />
  <path
     d="m -290.02574,-158.04643 c 0.41549,3.35731 0.69249,6.27586 0.81938,8.77899 h 0.48461 c 0.18466,-2.3727 0.56928,-5.23187 1.15414,-8.57724 0.58485,-3.34563 1.11193,-6.17308 1.58124,-8.48234 l 22.25187,-98.68071 h 28.77285 l 23.08285,97.19771 a 140.033,143.94069 0 0 1 2.87389,18.34084 h 0.38093 a 136.78241,140.59938 0 0 1 2.40062,-17.79525 l 18.40851,-97.79075 h 26.18756 l -32.33921,141.4129 h -30.59626 l -21.92871,-93.65059 c -0.63471,-2.69295 -1.36176,-6.21647 -2.15818,-10.54672 -0.79643,-4.33023 -1.29264,-7.49773 -1.48891,-9.4908 h -0.38094 c -0.25378,2.30138 -0.75026,5.71835 -1.48891,10.25006 -0.73865,4.53199 -1.33115,7.88523 -1.77751,10.06025 l -20.61312,93.35393 h -31.11569 l -32.512,-141.34184 h 26.66056 l 20.04753,98.88217 c 0.45031,2.02887 0.87741,4.73375 1.2929,8.07939 z"
     fill="#ffffff"
     id="path11"
     style="stroke-width:0.26746" />
</svg>
