<?xml version="1.0" encoding="UTF-8" standalone="no"?>
<!-- Uploaded to: SVG Repo, www.svgrepo.com, Generator: SVG Repo Mixer Tools -->

<svg
   fill="#000000"
   height="800px"
   width="800px"
   version="1.1"
   id="Capa_1"
   viewBox="0 0 227.745 227.745"
   xml:space="preserve"
   sodipodi:docname="writing.svg"
   inkscape:version="1.4 (86a8ad7, 2024-10-11)"
   xmlns:inkscape="http://www.inkscape.org/namespaces/inkscape"
   xmlns:sodipodi="http://sodipodi.sourceforge.net/DTD/sodipodi-0.dtd"
   xmlns="http://www.w3.org/2000/svg"
   xmlns:svg="http://www.w3.org/2000/svg"><defs
   id="defs1" /><sodipodi:namedview
   id="namedview1"
   pagecolor="#ffffff"
   bordercolor="#000000"
   borderopacity="0.25"
   inkscape:showpageshadow="2"
   inkscape:pageopacity="0.0"
   inkscape:pagecheckerboard="0"
   inkscape:deskcolor="#d1d1d1"
   inkscape:zoom="1.01875"
   inkscape:cx="400.4908"
   inkscape:cy="400"
   inkscape:window-width="1920"
   inkscape:window-height="1017"
   inkscape:window-x="-8"
   inkscape:window-y="-8"
   inkscape:window-maximized="1"
   inkscape:current-layer="Capa_1" />
<path
   d="M95.498,179.991l-7.916-39.778l5.948-36.883c0.233-1.446-0.18-2.922-1.129-4.038c-0.95-1.115-2.341-1.758-3.807-1.758  h-3.472L70.832,6.345c-0.381-2.433-2.478-4.226-4.94-4.226c-2.462,0-4.559,1.793-4.94,4.226L46.663,97.534h-3.472  c-1.465,0-2.856,0.643-3.807,1.758c-0.95,1.116-1.363,2.592-1.129,4.038l5.948,36.883l-7.916,39.778  c-0.474,2.383,0.833,4.763,3.1,5.639c0.092,0.036,9.33,3.899,13.916,16.047c4.956,13.13,7.775,22.422,7.803,22.514  c0.017,0.057,0.045,0.108,0.065,0.164c0.043,0.125,0.092,0.245,0.144,0.365c0.062,0.144,0.128,0.284,0.203,0.42  c0.059,0.108,0.122,0.213,0.189,0.317c0.088,0.135,0.182,0.265,0.281,0.39c0.074,0.093,0.148,0.184,0.228,0.271  c0.11,0.12,0.227,0.23,0.347,0.338c0.088,0.079,0.174,0.159,0.267,0.231c0.131,0.102,0.269,0.19,0.409,0.278  c0.097,0.061,0.189,0.126,0.29,0.181c0.18,0.096,0.368,0.174,0.559,0.249c0.071,0.027,0.136,0.064,0.209,0.088  c0.269,0.091,0.548,0.157,0.832,0.201c0.011,0.002,0.022,0.006,0.033,0.008c0.22,0.032,0.439,0.045,0.656,0.048  c0.024,0,0.047,0.006,0.071,0.006c0.001,0,0.003,0,0.004,0s0.003,0,0.004,0c0.024,0,0.047-0.005,0.071-0.006  c0.217-0.003,0.436-0.016,0.656-0.048c0.011-0.002,0.022-0.006,0.033-0.008c0.284-0.044,0.562-0.11,0.831-0.201  c0.075-0.025,0.143-0.063,0.216-0.091c0.188-0.073,0.374-0.15,0.551-0.245c0.102-0.055,0.196-0.121,0.293-0.183  c0.139-0.087,0.276-0.175,0.406-0.276c0.094-0.073,0.181-0.154,0.27-0.234c0.12-0.107,0.236-0.217,0.345-0.336  c0.081-0.088,0.155-0.179,0.229-0.272c0.099-0.125,0.193-0.254,0.281-0.389c0.067-0.103,0.13-0.208,0.189-0.317  c0.074-0.136,0.141-0.276,0.203-0.42c0.052-0.12,0.101-0.241,0.144-0.365c0.019-0.056,0.047-0.106,0.064-0.163  c0.028-0.092,2.847-9.385,7.803-22.514c4.581-12.132,13.574-15.907,13.916-16.047C94.665,184.754,95.972,182.374,95.498,179.991z   M65.893,160.572c1.854,0,3.361,1.508,3.361,3.361s-1.508,3.362-3.361,3.362s-3.362-1.509-3.362-3.362  S64.039,160.572,65.893,160.572z M46.817,178.313l6.568-33.006h7.507v6.245c-4.896,1.984-8.362,6.783-8.362,12.382  c0,5.6,3.466,10.398,8.362,12.383v17.776C56.648,185.557,50.677,180.728,46.817,178.313z M70.893,194.091v-17.775  c4.896-1.984,8.361-6.783,8.361-12.382c0-5.599-3.466-10.397-8.361-12.381v-6.245H78.4l6.568,33.006  C81.109,180.727,75.138,185.558,70.893,194.091z M136.574,39.197l-10.8,54.654c-0.471,2.381-2.561,4.031-4.899,4.031  c-0.322,0-0.647-0.031-0.976-0.096c-2.709-0.535-4.471-3.165-3.936-5.875l11.785-59.642c0.26-1.314,1.037-2.471,2.157-3.207  c1.12-0.737,2.489-0.992,3.799-0.712l9.274,1.993c0.618-2.488,1.26-4.818,1.926-6.996h36.96c0.979,3.199,1.906,6.724,2.78,10.594  c3.667,16.237,5.975,36.83,6.677,59.087h-55.876c0.618-19.526,2.475-37.766,5.398-52.914L136.574,39.197z M148.63,13.349  C152.747,4.402,157.632,0,163.386,0c5.756,0,10.642,4.399,14.76,13.349H148.63z M191.53,103.029  c0.015,1.511,0.025,3.026,0.025,4.548c0,27.759-2.454,53.91-6.909,73.635c-4.174,18.481-9.524,29.274-16.26,32.722v7.951  c0,2.762-2.238,5-5,5s-5-2.238-5-5v-7.951c-6.736-3.448-12.086-14.241-16.261-32.722c-4.455-19.726-6.909-45.876-6.909-73.635  c0-1.521,0.008-3.037,0.023-4.548H191.53z"
   id="path1"
   style="fill:#ffffff;fill-opacity:1" />
</svg>
